<svg xmlns="http://www.w3.org/2000/svg" xmlns:xlink="http://www.w3.org/1999/xlink" viewBox="0 0 1887.59 1422.57"><defs><style>.cls-1{fill:none;}.cls-2{fill:#1a1e3b;}.cls-3{fill:url(#AmericanPattern2);}</style><pattern id="AmericanPattern2" data-name="AmericanPattern2" width="371.13" height="409.07" patternUnits="userSpaceOnUse" viewBox="0 0 371.13 409.07"><rect class="cls-1" width="371.13" height="409.07"/><path class="cls-2" d="M360,392l10.85-34a51.22,51.22,0,0,0-48.34,34.7Z"/><path class="cls-2" d="M419.67,393.35,390.23,415l11.48,35.2-30.71-22L341,450l11.49-35.2-30-21.85a51.18,51.18,0,1,0,97.18.44Z"/><path class="cls-2" d="M322.71,393l-.41-.3,37.71-.75,11-34.36,12.24,34.86,37.2.25-.4.3h7.66a58.57,58.57,0,0,0-112.62,0Z"/><polygon class="cls-2" points="335.26 401.93 270.22 401.93 270.22 409.92 346.31 409.92 335.26 401.93"/><polygon class="cls-2" points="350.92 419.16 271 419.16 271 392.94 322.6 392.94 322.19 392.65 359.89 391.9 361.55 386.7 264.89 386.7 264.89 425.65 348.8 425.65 350.92 419.16"/><path class="cls-2" d="M12.11,392.53l36.24.25A51.21,51.21,0,0,0,0,358.08Z"/><path class="cls-2" d="M48.54,393.35,19.1,415l11.49,35.2-30.71-22-30,21.72,11.49-35.2-30-21.85a51.17,51.17,0,0,0-2.67,16.35A51.19,51.19,0,0,0-.12,460.45a51.19,51.19,0,0,0,51.18-51.19A51.36,51.36,0,0,0,48.54,393.35Z"/><path class="cls-2" d="M-48.42,393l-.4-.3,37.7-.75,11-34.36L12.1,392.42l37.2.25-.4.3h7.66A58.58,58.58,0,0,0,.25,350.52,58.58,58.58,0,0,0-56.06,393Z"/><polygon class="cls-2" points="36.6 401.93 25.67 409.92 103 409.92 103 401.93 36.6 401.93"/><polygon class="cls-2" points="9.99 386.7 11.98 392.4 49.19 392.65 48.79 392.94 100.87 392.94 100.87 419.16 20.38 419.16 22.49 425.65 106.24 425.65 106.24 386.7 9.99 386.7"/><path class="cls-2" d="M197.67,188l36.24.24a51.23,51.23,0,0,0-48.33-34.7Z"/><path class="cls-2" d="M174.45,187.5l10.86-34A51.2,51.2,0,0,0,137,188.25Z"/><path class="cls-2" d="M234.1,188.82l-29.44,21.65,11.49,35.21-30.71-22-30,21.73L167,210.22l-30-21.85a51.18,51.18,0,1,0,97.18.45Z"/><path class="cls-2" d="M137.15,188.43l-.41-.3,37.7-.74,11-34.37,12.23,34.87,37.21.24-.41.3h7.66a58.57,58.57,0,0,0-112.61,0Z"/><path class="cls-2" d="M206.05,214.65l10.09,30.91-30.71-22-30,21.72,10-30.66H128.13a58.56,58.56,0,0,0,115.36,0Z"/><polygon class="cls-2" points="149.7 197.4 84.66 197.4 84.66 205.39 160.75 205.39 149.7 197.4"/><polygon class="cls-2" points="222.16 197.4 211.24 205.39 288.56 205.39 288.56 197.4 222.16 197.4"/><polygon class="cls-2" points="165.36 214.63 85.44 214.63 85.44 188.41 137.03 188.41 136.63 188.11 174.33 187.36 175.99 182.17 79.32 182.17 79.32 221.12 163.24 221.12 165.36 214.63"/><polygon class="cls-2" points="195.55 182.17 197.55 187.86 234.75 188.11 234.35 188.41 286.44 188.41 286.44 214.63 205.94 214.63 208.06 221.12 291.81 221.12 291.81 182.17 195.55 182.17"/><path class="cls-2" d="M419.67-15.72,390.23,5.94l11.48,35.2L371,19.17,341,40.89l11.49-35.2-30-21.85A51.17,51.17,0,0,0,319.82.19,51.18,51.18,0,0,0,371,51.38,51.19,51.19,0,0,0,422.19.19,51.36,51.36,0,0,0,419.67-15.72Z"/><path class="cls-2" d="M391.62,10.11,401.7,41,371,19.05,341,40.78l10-30.67H313.7a58.56,58.56,0,0,0,57.68,48.44,58.56,58.56,0,0,0,57.68-48.44Z"/><polygon class="cls-2" points="335.26 -7.14 270.22 -7.14 270.22 0.85 346.31 0.85 335.26 -7.14"/><polygon class="cls-2" points="350.92 10.09 271 10.09 271 -16.13 322.6 -16.13 322.19 -16.42 359.89 -17.17 361.55 -22.37 264.89 -22.37 264.89 16.58 348.8 16.58 350.92 10.09"/><path class="cls-2" d="M48.54-15.72,19.1,5.94l11.49,35.2-30.71-22-30,21.72L-18.6,5.69l-30-21.85A51.17,51.17,0,0,0-51.31.19,51.19,51.19,0,0,0-.12,51.38,51.19,51.19,0,0,0,51.06.19,51.36,51.36,0,0,0,48.54-15.72Z"/><path class="cls-2" d="M20.49,10.11,30.57,41l-30.71-22-30,21.73,10-30.67H-57.43A58.56,58.56,0,0,0,.25,58.55,58.56,58.56,0,0,0,57.93,10.11Z"/><polygon class="cls-2" points="36.6 -7.14 25.67 0.85 103 0.85 103 -7.14 36.6 -7.14"/><polygon class="cls-2" points="9.99 -22.37 11.98 -16.67 49.19 -16.42 48.79 -16.13 100.87 -16.13 100.87 10.09 20.38 10.09 22.49 16.58 106.24 16.58 106.24 -22.37 9.99 -22.37"/></pattern></defs><title>Asset 4</title><g id="Layer_2" data-name="Layer 2"><g id="Layer_1-2" data-name="Layer 1"><rect class="cls-3" width="1887.59" height="1422.57"/></g></g></svg>