<svg xmlns="http://www.w3.org/2000/svg" viewBox="0 0 1146.54 814.97"><defs><style>.cls-1{fill:#34252f;stroke:#191016;stroke-width:6px;}.cls-1,.cls-3{stroke-miterlimit:10;}.cls-2{fill:#c5afa4;}.cls-3{fill:#2b2320;stroke:#5b3b2f;}.cls-4{fill:#665260;}.cls-5{fill:#e8cabc;}.cls-6{fill:#070707;}</style></defs><title>BookCover</title><g id="Layer_2" data-name="Layer 2"><g id="Layer_1-2" data-name="Layer 1"><path class="cls-1" d="M1136.66,9.88,1140.1,3H23.64L14,11.44v8.44L3,33.49,5.76,740.43l22,16.51v12.38L81.42,812h994.71l17.88-5.51-2.6-12.1L1109,740.43l34.51-4.13V19.88Z"/><polygon class="cls-2" points="1109.03 740.43 49.64 740.43 49.64 754.18 89.68 799.59 1091.41 794.36 1109.03 740.43"/><polygon class="cls-3" points="1091.41 794.36 1078.19 789.27 1093.07 789.27 1097.76 774.92 1043.11 770.01 1097.76 770.01 1100.58 762.44 1076.13 754.18 1102.96 759 1106.86 747.06 1085.76 740.43 1109.03 740.43 1091.41 794.36"/><polygon class="cls-3" points="1036.23 752.81 606.98 755.56 785.14 759 1036.23 752.81"/><polygon class="cls-3" points="1030.72 770.01 922.72 770.01 976.72 776.88 1030.72 770.01"/><polygon class="cls-3" points="49.64 740.43 49.64 754.18 66.63 773.45 89.68 799.59 124.08 799.41 90.37 793.39 113.07 789.96 86.86 788.58 73.17 773.45 120.64 770.01 66.29 766.57 54.87 755.9 54.87 744.55 246.71 740.43 49.64 740.43"/><polygon class="cls-3" points="178.42 759 464.37 755.9 338.7 762.44 178.42 762.44 178.42 759"/><polygon class="cls-3" points="467.33 773.45 662.01 773.45 714.98 776.88 551.95 776.88 467.33 773.45"/><polygon class="cls-3" points="139.21 776.88 301.55 776.88 184.15 783.53 139.21 776.88"/><polygon class="cls-3" points="1083.92 747.76 966.52 747.76 1066.49 744.1 1083.92 747.76"/><polygon class="cls-3" points="77.76 755.9 163.97 752.81 126.37 759.17 77.76 755.9"/><polygon class="cls-4" points="15.39 33.49 15.39 728.5 30.98 747.76 23.18 715.66 23.18 28.68 14.01 19.88 15.39 33.49"/><polygon class="cls-5" points="755.57 775.17 887.94 775.17 922.72 781.87 755.57 775.17"/><polygon class="cls-5" points="274.95 783.53 475.13 781.87 569.37 783.53 427.21 788.12 274.95 783.53"/><polygon class="cls-5" points="508.84 762.44 591.16 759.17 690.24 762.44 508.84 762.44"/><polygon class="cls-5" points="97.02 780.21 127.28 778.52 163.97 788.12 97.02 780.21"/><polygon class="cls-4" points="1095.85 734.01 1131.62 734.01 1138.95 724.83 1138.95 695.48 1126.11 728.5 1095.85 734.01"/><polygon class="cls-4" points="1136.2 37.61 1136.66 9.88 1122.44 9.88 1101.92 9.88 1128.86 19.88 1136.2 37.61"/><polygon class="cls-6" points="1091.41 794.36 89.68 799.59 467.33 794.36 1061.91 788.12 1091.41 794.36"/><polygon class="cls-6" points="1117.4 739.43 1091.41 728.5 42.98 734.01 42.98 747.76 42.98 760.81 89.68 799.59 49.64 759 49.64 744.1 321.4 740.43 1076.07 734.01 1117.4 739.43"/><polygon class="cls-6" points="42.64 754.18 90.02 767.39 54.29 767.39 42.64 754.18"/><polygon class="cls-6" points="73.33 788.12 108.94 794.36 77.76 794.36 73.33 788.12"/><polygon class="cls-6" points="22.5 704.66 22.5 723.92 30.98 752.81 33.06 728.73 22.5 704.66"/><line class="cls-6" x1="1126.11" y1="728.5" x2="1109.03" y2="728.5"/><polygon class="cls-6" points="1112.35 15.84 1101.92 9.88 1072 11.94 1112.35 15.84"/><polyline class="cls-6" points="30.98 11.94 22.5 19.88 22.5 47.03 30.98 21.88"/></g></g></svg>