<svg xmlns="http://www.w3.org/2000/svg" viewBox="0 0 950.76 938.73"><defs><style>.cls-1{fill:#c5afa4;}.cls-2{fill:#5e544f;}.cls-3{fill:#34252f;stroke-width:6px;}.cls-3,.cls-5{stroke:#191016;stroke-miterlimit:10;}.cls-4{fill:#665260;}.cls-5{fill:#a49966;stroke-width:4px;}.cls-6{fill:#e0d192;}.cls-7{fill:#191016;}.cls-8{fill:#685e35;}.cls-9{fill:#f4e0d7;}.cls-10{fill:#211c1a;}</style></defs><title>BookCover_2</title><g id="Layer_2" data-name="Layer 2"><g id="Layer_2-2" data-name="Layer 2"><polygon class="cls-1" points="70.12 830.27 42.6 855.04 54.99 889.43 99.01 921.08 858.68 925.21 876.28 908.73 869.69 896.31 880.69 896.31 872.44 885.31 883.45 886.68 899.95 879.8 912.34 864.67 868.08 835.78 70.12 830.27"/><polygon class="cls-2" points="99.18 854.73 144.41 857.79 97.64 859.63 72.87 855.96 76.54 863.29 96.72 868.8 72.87 867.88 68.28 865.13 63.7 873.38 76.54 878.89 90.3 884.39 105.89 885.31 89.38 891.73 75.62 888.98 93.05 906.4 102.22 909.15 127.9 910.07 142.58 907.32 128.82 915.58 118.73 917.41 99.01 921.08 54.99 889.43 53.61 855.04 63.7 840.36 99.18 854.73"/><polyline class="cls-2" points="876.28 908.73 869.69 896.31 880.69 896.31 872.44 885.31 883.45 886.68 895.83 880.72 899.95 879.8 912.34 864.67 884.82 857.79 902.25 867.88 895.83 874.3 880.23 882.56 853.64 885.31 872.9 892.64 860.97 899.07 868.31 907.32 857.3 914.66 873.81 911.91 879.32 911.91"/><polygon class="cls-3" points="935.5 39.85 934.28 854.73 921.28 863.73 885.28 854.73 867.28 854.73 549.18 854.73 342.18 854.73 99.18 854.73 63.18 845.73 54.18 863.73 63.18 863.73 63.18 881.73 108.18 917.73 849.28 917.73 876.28 908.73 885.28 926.73 858.28 935.73 99.18 935.73 45.18 890.73 45.18 872.73 18.18 854.73 18.18 50 18.18 32 27.18 14 54.18 14 930.04 14.89 930.04 23.89 935.5 39.85"/><polygon class="cls-4" points="25.86 33.26 25.86 831.01 41.46 850.27 33.66 818.17 33.66 28.46 24.49 19.66 25.86 33.26"/><path class="cls-5" d="M48.79,833s-32-6.51-30.95,20L2,847.47,3.39,737.41s30.27-27.52,46.78-22Z"/><path class="cls-5" d="M53.38,474.19s-32-6.5-30.95,19.95L6.6,488.64,8,378.58s30.27-27.52,46.78-22Z"/><path class="cls-5" d="M54.3,113s-32-6.5-31,20L7.52,127.4,8.9,17.33S40.77-2.54,57.28,3Z"/><polygon class="cls-5" points="917.11 358.98 917.11 517.2 935 521.33 935 532.33 943.25 532.33 948.76 519.95 946 357.61 939.13 342.47 928.12 345.22 917.11 358.98"/><polygon class="cls-6" points="19.67 24.98 18.76 74.5 34.35 13.97 19.67 24.98"/><polygon class="cls-6" points="27.01 375.45 15.09 386.46 14.17 475.43 22.43 470.84 27.01 375.45"/><polygon class="cls-6" points="23.34 736.72 10.5 744.06 8.67 832.11 17.84 828.44 42.6 821.1 18.76 821.1 19.67 749.56 23.34 736.72"/><polygon class="cls-6" points="929.5 357.61 937.75 353.48 940.5 484.18 929.5 357.61"/><polygon class="cls-2" points="178.35 909.15 250.81 908.24 298.5 904.57 330.6 906.4 397.56 909.15 328.77 901.82 289.33 898.15 265.48 902.73 178.35 909.15"/><polygon class="cls-2" points="103.14 894.48 142.58 893.56 199.44 887.14 281.99 887.14 199.44 894.48 120.57 899.07 103.14 894.48"/><polygon class="cls-2" points="99.47 874.3 178.35 870.63 204.03 871.55 168.26 875.22 99.47 874.3"/><polygon class="cls-2" points="886.65 866.96 834.19 862.38 790.16 868.8 855.28 867.88 861.89 869.72 886.65 866.96"/><polygon class="cls-2" points="843.55 891.73 831.44 884.39 758.98 888.06 707.62 885.31 592.97 891.73 707.62 890.81 739.72 890.81 769.07 894.48 818.6 892.64 843.55 891.73"/><polygon class="cls-2" points="853.64 903.65 867.21 901.82 819.51 899.98 772.74 907.32 829.6 905.49 853.64 903.65"/><polygon class="cls-7" points="75.62 57.08 79.29 35.06 106.81 29.56 66.45 24.06 73.79 64.42 75.62 57.08"/><polygon class="cls-7" points="62.78 798.17 63.7 840.36 86.63 849.54 70.12 830.27 62.78 798.17"/><polygon class="cls-7" points="924.93 48.79 921.27 28.61 887.74 26.78 915.26 41.45 924.93 48.79"/><polygon class="cls-7" points="910.27 352.56 926.78 337.89 928.62 301.2 921.28 328.71 910.27 352.56"/><polygon class="cls-7" points="913.94 501.15 913.94 521.33 928.62 534.17 934.12 574.52 917.61 543.34 901.1 519.49 913.94 501.15"/><polygon class="cls-7" points="55.45 706.45 42.6 695.45 44.44 656.92 55.45 706.45"/><polygon class="cls-7" points="49.94 502.03 42.6 483.68 53.38 474.19 49.94 502.03"/><polygon class="cls-7" points="57.28 349.77 42.6 346.1 42.6 313.08 57.28 349.77"/><path class="cls-8" d="M16,124s8.25-25.68,27.51-23.84V80S19.67,97.43,16,124Z"/><path class="cls-8" d="M45.36,448.83v17.43S35.27,459.84,27.93,469C27.93,469,36.18,447.91,45.36,448.83Z"/><path class="cls-8" d="M39.85,727.55l-16.51,9.17s20.18,18.35,19.26,42.19Z"/><path class="cls-8" d="M942.57,517.2l-.69-25.45-7.57,16.51L924,511.7S943.94,509.63,942.57,517.2Z"/><polygon class="cls-4" points="909.3 50.63 922.64 65.3 922.64 188.21 909.3 50.63"/><polygon class="cls-4" points="921.28 645 924.95 804.59 910.27 824.77 921.28 645"/><polygon class="cls-4" points="60.95 761.49 62.78 787.17 82.96 805.51 60.95 761.49"/><polygon class="cls-9" points="778.24 866.96 729.63 874.3 636.99 878.89 581.92 884.39 606.73 875.22 638.83 873.38 778.24 866.96"/><polygon class="cls-9" points="224.21 873.38 328.77 869.72 332.59 869.94 423.24 875.22 558.07 870.63 577.33 870.63 428.74 880.72 337.02 874.3 224.21 873.38"/><polygon class="cls-9" points="375.55 888.98 487.44 897.23 613.1 899.07 574.58 899.98 580.08 903.65 491.11 903.65 375.55 888.98"/><polygon class="cls-9" points="619.57 904.57 718.62 899.07 754.39 899.98 782.83 899.98 736.97 905.49 702.11 904.57 619.57 904.57"/><polygon class="cls-10" points="63.7 873.38 90.3 884.39 166.43 882.56 63.7 873.38"/><polygon class="cls-10" points="79.29 893.56 120.57 899.07 223.29 892.64 120.57 903.65 90.3 901.82 79.29 893.56"/><polygon class="cls-10" points="869.23 901.82 873.63 903.65 860.97 899.07 869.69 896.31 869.23 901.82"/><polygon class="cls-10" points="905 871.55 880.23 875.22 827.95 876.13 811.26 873.38 760.81 882.56 825.93 878.89 829.79 880.72 881.15 878.89 905 871.55"/><polygon class="cls-10" points="900.37 860.39 905.45 871.4 889.08 881.94 868.04 886.07 877.46 894.17 858.95 898.91 875.81 908.58 875.11 902.58 887.24 897.08 880.16 890.66 902.38 884.24 916.53 864.52 900.37 860.39"/><polygon class="cls-2" points="605.76 881.64 483.78 881.64 453.51 888.06 346.2 880.72 458.09 891.73 485.61 888.06 605.76 881.64"/><polygon class="cls-7" points="887.34 844.03 916.23 856.41 923.11 845.41 927.24 828.9 914.86 844.03 887.34 844.03"/></g></g></svg>