<svg xmlns="http://www.w3.org/2000/svg" viewBox="0 0 1187.9 836"><defs><style>.cls-1{fill:#c5afa4;}.cls-2{fill:#5e544f;}.cls-3{fill:#34252f;stroke-width:6px;}.cls-3,.cls-5{stroke:#191016;stroke-miterlimit:10;}.cls-4{fill:#665260;}.cls-5{fill:#a49966;stroke-width:4px;}.cls-6{fill:#e0d192;}.cls-7{fill:#191016;}.cls-8{fill:#685e35;}.cls-9{fill:#f4e0d7;}.cls-10{fill:#211c1a;}</style></defs><title>BookCover_1</title><g id="Layer_2" data-name="Layer 2"><g id="Layer_2-2" data-name="Layer 2"><polygon class="cls-1" points="70.12 727.55 42.6 752.31 54.99 786.71 99.01 818.35 1089.59 822.48 1107.18 806 1100.59 793.59 1111.6 793.59 1103.34 782.58 1114.35 783.96 1130.86 777.08 1143.24 761.94 987.78 701.41 70.12 727.55"/><polygon class="cls-2" points="99.18 752 144.41 755.07 97.64 756.9 72.87 753.23 76.54 760.57 96.72 766.07 72.87 765.15 68.28 762.4 63.7 770.66 76.54 776.16 90.3 781.66 105.89 782.58 89.38 789 75.62 786.25 93.05 803.68 102.22 806.43 127.9 807.35 142.58 804.59 128.82 812.85 118.73 814.68 99.01 818.35 54.99 786.71 53.61 752.31 63.7 737.64 99.18 752"/><polyline class="cls-2" points="1107.18 806 1100.59 793.59 1111.6 793.59 1103.34 782.58 1114.35 783.96 1126.73 778 1130.86 777.08 1143.24 761.94 1115.72 755.07 1133.15 765.15 1126.73 771.58 1111.14 779.83 1084.54 782.58 1103.8 789.92 1091.88 796.34 1099.21 804.59 1088.21 811.93 1104.72 809.18 1110.22 809.18"/><polygon class="cls-3" points="1166.65 38.96 1170.18 752 1152.18 761 1116.18 752 1098.18 752 549.18 752 342.18 752 99.18 752 63.18 743 54.18 761 63.18 761 63.18 779 108.18 815 1080.18 815 1107.18 806 1116.18 824 1089.18 833 99.18 833 45.18 788 45.18 770 18.18 752 18.18 50 18.18 32 27.18 14 54.18 14 1161.18 14 1161.18 23 1166.65 38.96"/><polygon class="cls-4" points="25.86 33.26 25.86 728.28 41.46 747.54 33.66 715.44 33.66 28.46 24.49 19.66 25.86 33.26"/><path class="cls-5" d="M48.79,730.3s-32-6.5-30.95,20L2,744.75,3.39,634.68s30.27-27.51,46.78-22Z"/><path class="cls-5" d="M53.38,414.47s-32-6.51-30.95,19.95L6.6,428.91,8,318.85s30.27-27.52,46.78-22Z"/><path class="cls-5" d="M54.3,113s-32-6.5-31,20L7.52,127.4,8.9,17.33S40.77-2.54,57.28,3Z"/><polygon class="cls-5" points="1154.25 298.3 1154.25 456.52 1172.13 460.64 1172.13 471.65 1180.39 471.65 1185.89 459.27 1183.14 296.93 1176.26 281.79 1165.25 284.54 1154.25 298.3"/><polygon class="cls-6" points="19.67 24.98 18.76 74.5 34.35 13.97 19.67 24.98"/><polygon class="cls-6" points="27.01 315.73 15.09 326.73 14.17 415.7 22.43 411.12 27.01 315.73"/><polygon class="cls-6" points="23.34 634 10.5 641.33 8.67 729.38 17.84 725.72 42.6 718.38 18.76 718.38 19.67 646.84 23.34 634"/><polygon class="cls-6" points="1166.63 296.93 1174.88 292.8 1177.64 423.5 1166.63 296.93"/><polygon class="cls-2" points="178.35 806.43 250.81 805.51 298.5 801.84 330.6 803.68 397.56 806.43 328.77 799.09 289.33 795.42 265.48 800.01 178.35 806.43"/><polygon class="cls-2" points="103.14 791.75 142.58 790.84 199.44 784.41 281.99 784.41 199.44 791.75 120.57 796.34 103.14 791.75"/><polygon class="cls-2" points="99.47 771.58 178.35 767.91 204.03 768.82 168.26 772.49 99.47 771.58"/><polygon class="cls-2" points="1117.56 764.24 1013 759.65 968.97 766.07 1034.09 765.15 1092.8 766.99 1117.56 764.24"/><polygon class="cls-2" points="1074.45 789 1010.25 781.66 937.79 785.33 886.42 782.58 771.78 789 886.42 788.08 918.53 788.08 947.88 791.75 997.41 789.92 1074.45 789"/><polygon class="cls-2" points="1084.54 800.92 1046.02 799.09 998.32 797.26 951.55 804.59 1008.41 802.76 1084.54 800.92"/><polygon class="cls-7" points="75.62 57.08 79.29 35.06 106.81 29.56 66.45 24.06 73.79 64.42 75.62 57.08"/><polygon class="cls-7" points="62.78 695.45 63.7 737.64 86.63 746.81 70.12 727.55 62.78 695.45"/><polygon class="cls-7" points="1099.21 741.31 1126.73 741.31 1146.91 748.64 1161.59 744.98 1161.59 722.96 1152.41 733.97 1099.21 741.31"/><polygon class="cls-7" points="1156.08 47.91 1152.41 27.73 1113.89 25.89 1141.41 40.57 1156.08 47.91"/><polygon class="cls-7" points="1141.41 291.88 1157.92 277.2 1159.75 240.52 1152.41 268.03 1141.41 291.88"/><polygon class="cls-7" points="1145.08 440.47 1145.08 460.64 1159.75 473.49 1165.25 513.84 1148.74 482.66 1132.23 458.81 1145.08 440.47"/><polygon class="cls-7" points="55.45 603.73 42.6 592.72 44.44 554.2 55.45 603.73"/><polygon class="cls-7" points="49.94 442.3 42.6 423.96 53.38 414.47 49.94 442.3"/><polygon class="cls-7" points="57.28 290.05 42.6 286.38 42.6 253.36 57.28 290.05"/><path class="cls-8" d="M16,124s8.25-25.68,27.51-23.84V80S19.67,97.43,16,124Z"/><path class="cls-8" d="M45.36,389.1v17.43s-10.09-6.42-17.43,2.75C27.93,409.28,36.18,388.19,45.36,389.1Z"/><path class="cls-8" d="M39.85,624.82,23.34,634s20.18,18.34,19.26,42.19Z"/><path class="cls-8" d="M1179.7,456.52l-.69-25.45-7.57,16.5L1161.13,451S1181.08,449,1179.7,456.52Z"/><polygon class="cls-4" points="1139.57 49.74 1157.92 64.42 1157.92 187.32 1139.57 49.74"/><polygon class="cls-4" points="1157.92 550.53 1161.59 710.12 1146.91 730.3 1157.92 550.53"/><polygon class="cls-4" points="60.95 658.76 62.78 684.44 82.96 702.78 60.95 658.76"/><polygon class="cls-9" points="957.05 764.24 908.44 771.58 815.8 776.16 581.92 781.66 785.53 772.49 817.64 770.66 957.05 764.24"/><polygon class="cls-9" points="224.21 770.66 328.77 766.99 332.59 767.21 423.24 772.49 558.07 767.91 577.33 767.91 428.74 778 337.02 771.58 224.21 770.66"/><polygon class="cls-9" points="375.55 786.25 487.44 794.5 613.1 796.34 676.39 797.26 580.08 800.92 491.11 800.92 375.55 786.25"/><polygon class="cls-9" points="798.38 801.84 897.43 796.34 933.2 797.26 961.64 797.26 915.78 802.76 880.92 801.84 798.38 801.84"/><polygon class="cls-10" points="63.7 770.66 90.3 781.66 166.43 779.83 63.7 770.66"/><polygon class="cls-10" points="79.29 790.84 120.57 796.34 223.29 789.92 120.57 800.92 90.3 799.09 79.29 790.84"/><polygon class="cls-10" points="1100.13 799.09 1052.44 800.92 1091.88 796.34 1100.59 793.59 1100.13 799.09"/><polygon class="cls-10" points="1135.9 768.82 1111.14 772.49 1058.86 773.41 990.07 770.66 939.62 779.83 1004.74 776.16 1060.69 778 1112.06 776.16 1135.9 768.82"/><polygon class="cls-10" points="1126.48 757.82 1132.9 768.82 1116.39 781.66 1097.13 783.5 1105.39 793.59 1088.88 796.34 1104.18 806 1103.55 800.01 1114.56 794.5 1108.14 788.08 1127.4 781.66 1140.24 761.94 1126.48 757.82"/><polygon class="cls-2" points="605.76 778.91 483.78 778.91 453.51 785.33 346.2 778 458.09 789 485.61 785.33 605.76 778.91"/></g></g></svg>