<svg id="Layer_1" data-name="Layer 1" xmlns="http://www.w3.org/2000/svg" viewBox="0 0 775.48 697.3"><title>CheckIcon</title><path d="M410.36,482.12,658.73,700.87l400.54-452.08a29,29,0,0,0-2.59-41L992.18,151a29,29,0,0,0-41,2.6L639.9,504.39,499.59,380.81a29,29,0,0,0-41,2.6l-50.85,57.74A29,29,0,0,0,410.36,482.12Z" transform="translate(-291.04 -135.34)"/><path d="M898.58,470.35c.25,4.69.39,9.41.39,14.16,0,143-115.89,258.84-258.84,258.84S381.28,627.46,381.28,484.51,497.17,225.66,640.13,225.66a257.73,257.73,0,0,1,161.94,56.93l59.74-67.34a347.24,347.24,0,0,0-222.12-79.91C447.13,135.34,291,291.44,291,484S447.13,832.64,639.69,832.64,988.34,676.55,988.34,484a348.79,348.79,0,0,0-14.24-98.91Z" transform="translate(-291.04 -135.34)"/></svg>