<svg id="bb5b1234-9352-4179-82db-b813066a3e0b" data-name="Layer 1" xmlns="http://www.w3.org/2000/svg" viewBox="0 0 854.65 822.91"><defs><style>.e0449684-c9c3-4087-81af-7e557998485e,.e24b2578-908b-4e4c-bf1e-2cb2871994b9,.e6dc6fc2-71ba-4b0f-b37f-63e1421f2adb,.e99c19bd-78f7-4285-bd2e-2ae2c4ec4cdc{fill:#4ce0b3;}.a06b769f-e4d5-4f8a-8d53-18a700540e66,.a8a25562-b755-4529-abb5-46b4efa44f97,.e0449684-c9c3-4087-81af-7e557998485e,.e24b2578-908b-4e4c-bf1e-2cb2871994b9,.e6dc6fc2-71ba-4b0f-b37f-63e1421f2adb,.e99c19bd-78f7-4285-bd2e-2ae2c4ec4cdc,.ef9e7807-09c7-4c0a-bb29-da2f39b40ec7{stroke:#000;stroke-miterlimit:10;}.a8a25562-b755-4529-abb5-46b4efa44f97,.e0449684-c9c3-4087-81af-7e557998485e{stroke-width:12px;}.a06b769f-e4d5-4f8a-8d53-18a700540e66,.e24b2578-908b-4e4c-bf1e-2cb2871994b9{stroke-width:5px;}.a06b769f-e4d5-4f8a-8d53-18a700540e66,.a8a25562-b755-4529-abb5-46b4efa44f97{fill:none;}.e99c19bd-78f7-4285-bd2e-2ae2c4ec4cdc{stroke-width:13px;}.ef9e7807-09c7-4c0a-bb29-da2f39b40ec7{fill:#fff;stroke-width:16px;}.e6dc6fc2-71ba-4b0f-b37f-63e1421f2adb{stroke-width:15px;}</style></defs><title>CthulhuLogo</title><path class="e0449684-c9c3-4087-81af-7e557998485e" d="M807.54,754.49s9.46-90.42,86.81-107.24c0,0-65.17-7-107.62,39.52s-49.6,13.91-49.6,13.91l-.74,73Z" transform="translate(-221.09 -227.93)"/><path class="e24b2578-908b-4e4c-bf1e-2cb2871994b9" d="M737.13,691.2s.84,126.11,135.36,40.36S1039,766.87,1039,766.87s-42.88-57.17-87-37.83S903.6,781.16,888,807.23s-20.6,26.06-20.6,26.06l-174.16,9.18-73.38-78-70.62-8.26L601.56,693" transform="translate(-221.09 -227.93)"/><path class="a8a25562-b755-4529-abb5-46b4efa44f97" d="M737.13,691.2s.84,126.11,135.36,40.36S1039,766.87,1039,766.87s-42.88-57.17-87-37.83S903.6,781.16,888,807.23s-20.6,26.06-20.6,26.06" transform="translate(-221.09 -227.93)"/><path class="a8a25562-b755-4529-abb5-46b4efa44f97" d="M641.63,787.2" transform="translate(-221.09 -227.93)"/><path class="a06b769f-e4d5-4f8a-8d53-18a700540e66" d="M645.7,717" transform="translate(-221.09 -227.93)"/><path class="a06b769f-e4d5-4f8a-8d53-18a700540e66" d="M641.63,787.2" transform="translate(-221.09 -227.93)"/><path class="e0449684-c9c3-4087-81af-7e557998485e" d="M773.62,554A434.82,434.82,0,0,0,828,516s7.29-6,12.77-10.86c29.9-26.72,50.45-80.46,59.57-107.23,0,0,147.65,17,163.29,133-6.68-16.18-123.09-82.85-112.16,52.07-2.32-13-65.65-77.67-87.22,2-13.49-8.28-35.84-43.29-95-10.68" transform="translate(-221.09 -227.93)"/><path class="e0449684-c9c3-4087-81af-7e557998485e" d="M556.58,700.75s-7.16,32.58-49.61-13.92-107.61-39.51-107.61-39.51c77.35,16.81,86.81,107.23,86.81,107.23L547.45,781l9.13-80.27" transform="translate(-221.09 -227.93)"/><path class="e0449684-c9c3-4087-81af-7e557998485e" d="M523.21,554a434.82,434.82,0,0,1-54.35-38s-7.29-6-12.77-10.86c-29.9-26.72-50.45-80.46-59.57-107.23,0,0-147.65,17-163.29,133,6.68-16.18,123.09-82.85,112.16,52.07,2.32-13,65.65-77.67,87.22,2,13.3-8.16,35.21-42.32,92.56-12" transform="translate(-221.09 -227.93)"/><path class="e0449684-c9c3-4087-81af-7e557998485e" d="M556.58,691.27s-.84,126.11-135.36,40.36-166.47,35.31-166.47,35.31,42.88-57.17,87-37.84,48.34,52.13,63.9,78.19,20.59,26.07,20.59,26.07L536.44,859l80.71-31.18" transform="translate(-221.09 -227.93)"/><path class="a8a25562-b755-4529-abb5-46b4efa44f97" d="M652.08,787.27" transform="translate(-221.09 -227.93)"/><path class="e99c19bd-78f7-4285-bd2e-2ae2c4ec4cdc" d="M565.46,742.15c8.67-19.32,3.91-39.94-15.14-61.91-20.51-4.18-37.39-14.41-46.77-37.15l20.63-45.4a76.78,76.78,0,0,0,3.7-21.84c.25-16.79-5.89-33.79-21.58-51.08-40.9-27.14-70.95-69.26-77.05-144.46C443.93,295.79,520.88,249.66,648,234.48h0c127.12,15.18,204.07,61.31,218.75,145.83-6.1,75.2-36.15,117.32-77,144.46-22.52,24.82-25.36,49-17.88,72.92,10.71,23.55,17.93,39.44,20.63,45.4-9.37,22.74-26.25,33-46.77,37.15-19,22-23.81,42.59-15.14,61.91" transform="translate(-221.09 -227.93)"/><path class="ef9e7807-09c7-4c0a-bb29-da2f39b40ec7" d="M610.25,626.24a28.74,28.74,0,1,1-38.76-14.81" transform="translate(-221.09 -227.93)"/><path d="M597,671.52c1.69-4.53,3.48-8.88,5.22-13.19s3.44-8.57,5-12.76a113.51,113.51,0,0,0,3.9-12.36,36.08,36.08,0,0,0,1-5.63,11.4,11.4,0,0,0-.28-4l7.15,6.37c-1.16-.06-2.1-.13-3.14-.22l-3-.29c-2-.22-4-.46-6-.76-4-.58-7.87-1.33-11.76-2.2a145,145,0,0,1-22.87-7.17c-3.71-1.54-7.36-3.24-10.92-5.13A108.2,108.2,0,0,1,551,607.82a83.32,83.32,0,0,1-9.35-7.72,55.13,55.13,0,0,1-7.72-9.29c3.71,1.59,7.26,3.11,10.83,4.48s7.13,2.6,10.69,3.74,7.16,2.18,10.72,3.2,7.18,1.92,10.78,2.82q10.81,2.64,21.73,4.85c3.64.76,7.29,1.44,10.94,2.13l5.47,1,2.72.47,2.61.42,6.25,1,.91,5.36a25.45,25.45,0,0,1-.38,9.83,41.41,41.41,0,0,1-2.62,7.79,71,71,0,0,1-7.55,13,101.24,101.24,0,0,1-9.26,11.1A83.23,83.23,0,0,1,597,671.52Z" transform="translate(-221.09 -227.93)"/><path d="M332.26,307.8" transform="translate(-221.09 -227.93)"/><path d="M393.33,517.92" transform="translate(-221.09 -227.93)"/><path d="M649.26,407.55c2,15.78,3.46,31.57,5,47.35l1.06,11.84,1,11.83.88,11.84.81,11.84c.49,7.89,1.57,15.78,2.37,23.67a120.89,120.89,0,0,1,.13,23.68,192.25,192.25,0,0,1-3.67,23.68c-.89,3.94-1.9,7.89-3.12,11.83A93,93,0,0,1,649.26,597h-2.5a93.07,93.07,0,0,1-4.47-11.84c-1.22-3.94-2.23-7.89-3.12-11.83a190.33,190.33,0,0,1-3.66-23.68,120.89,120.89,0,0,1,.12-23.68c.8-7.89,1.88-15.78,2.38-23.67l.8-11.84.88-11.84,1-11.83,1.07-11.84c1.53-15.78,3-31.57,5-47.35Z" transform="translate(-221.09 -227.93)"/><path class="ef9e7807-09c7-4c0a-bb29-da2f39b40ec7" d="M687.71,626.39a28.75,28.75,0,1,0,38.76-14.8" transform="translate(-221.09 -227.93)"/><path d="M701,671.68a82.49,82.49,0,0,1-10.77-9.57,101.32,101.32,0,0,1-9.27-11.1,71,71,0,0,1-7.55-13,42.38,42.38,0,0,1-2.61-7.79,25.29,25.29,0,0,1-.38-9.84l.91-5.35,6.24-1,2.61-.42,2.72-.47,5.47-1c3.65-.69,7.31-1.37,10.94-2.13q10.93-2.19,21.74-4.85c3.59-.9,7.18-1.83,10.77-2.82s7.15-2,10.72-3.2,7.11-2.4,10.7-3.74,7.11-2.89,10.82-4.48a55.55,55.55,0,0,1-7.71,9.29A83.62,83.62,0,0,1,747,608a107,107,0,0,1-10.32,6.35c-3.56,1.89-7.21,3.59-10.92,5.13a144.64,144.64,0,0,1-22.87,7.17c-3.89.87-7.8,1.62-11.75,2.2-2,.3-4,.54-6,.76l-3,.29c-1,.09-2,.16-3.14.22l7.16-6.37a10.94,10.94,0,0,0-.28,4,34.86,34.86,0,0,0,1,5.63,113.63,113.63,0,0,0,3.91,12.36c1.57,4.19,3.26,8.46,5,12.76S699.27,667.15,701,671.68Z" transform="translate(-221.09 -227.93)"/><path class="e6dc6fc2-71ba-4b0f-b37f-63e1421f2adb" d="M716.31,745.5S706,843,850.63,834.62s134.09,166.47,134.09,166.47-26.9-109.3-137.88-100.89S656,893.47,648,853.12c-8,40.35-87.86,55.48-198.84,47.08s-137.88,100.89-137.88,100.89-10.51-174.88,134.1-166.47S579.71,745.5,579.71,745.5" transform="translate(-221.09 -227.93)"/><path d="M649.26,724.54c.5,2,.93,4,1.4,6l1.26,6c.85,4,1.59,8,2.34,12l1.06,6,1,6,.88,6,.81,6c.49,4,1.57,8,2.37,12a33.78,33.78,0,0,1,.66,6,31.81,31.81,0,0,1-.53,6,52.62,52.62,0,0,1-6.79,17.95,38,38,0,0,1-4.46,6h-2.5a38.07,38.07,0,0,1-4.47-6,52.39,52.39,0,0,1-6.78-17.95,31,31,0,0,1-.53-6,33.77,33.77,0,0,1,.65-6c.8-4,1.88-8,2.38-12l.8-6,.88-6,1-6,1.07-6c.74-4,1.49-8,2.33-12l1.27-6c.47-2,.89-4,1.4-6Z" transform="translate(-221.09 -227.93)"/></svg>