<svg id="Layer_1" data-name="Layer 1" xmlns="http://www.w3.org/2000/svg" viewBox="0 0 840.48 781.21"><defs><style>.cls-1,.cls-4,.cls-5{fill:#4ce0b3;}.cls-2{fill:#368f8b;}.cls-3,.cls-7{fill:none;}.cls-3,.cls-4,.cls-5,.cls-6,.cls-7{stroke:#000;stroke-miterlimit:10;}.cls-3,.cls-5{stroke-width:5px;}.cls-4,.cls-6,.cls-7{stroke-width:6px;}.cls-6{fill:#fff;}</style></defs><title>CthuluV2</title><path class="cls-1" d="M737.13,700.68s7.16,32.59,49.6-13.91,107.62-39.52,107.62-39.52C817,664.07,807.54,754.49,807.54,754.49l-29.76,36.84-40.65-6.88-27.19-27.52Z" transform="translate(-228.17 -231.46)"/><path class="cls-2" d="M769.42,754.37s44.85-21.58,52.21-45.43l-18.28,51S773.13,762.44,769.42,754.37Z" transform="translate(-228.17 -231.46)"/><path class="cls-3" d="M737.13,700.68s7.16,32.59,49.6-13.91,107.62-39.52,107.62-39.52C817,664.07,807.54,754.49,807.54,754.49l-29.76,36.84-40.65-6.88-27.19-27.52Z" transform="translate(-228.17 -231.46)"/><path class="cls-1" d="M737.13,691.2s.84,126.11,135.36,40.36S1039,766.87,1039,766.87s-42.88-57.17-87-37.83S903.6,781.16,888,807.23s-20.6,26.06-20.6,26.06L738.68,851.86l-97-64.66L645.7,717Z" transform="translate(-228.17 -231.46)"/><path class="cls-2" d="M901.45,780.22s-1.35,1.07-3.85,2.87C881.44,794.69,817,836.52,756,814.27c0,0,35.36,19.14,84.28,15.64l36,.43" transform="translate(-228.17 -231.46)"/><path class="cls-2" d="M719.09,769.84s19.26-41.27,32.1-32.1c0,0-15.59-39.44-13.76-50.45s-44,59.62-44,59.62Z" transform="translate(-228.17 -231.46)"/><path class="cls-3" d="M737.13,691.2s.84,126.11,135.36,40.36S1039,766.87,1039,766.87s-42.88-57.17-87-37.83S903.6,781.16,888,807.23s-20.6,26.06-20.6,26.06L738.68,851.86l-97-64.66L645.7,717Z" transform="translate(-228.17 -231.46)"/><path class="cls-1" d="M773.62,554A434.82,434.82,0,0,0,828,516s7.29-6,12.77-10.86c29.9-26.72,50.45-80.46,59.57-107.23,0,0,147.65,17,163.29,133-6.68-16.18-123.09-82.85-112.16,52.07-2.32-13-65.65-77.67-87.22,2-15.65-9.6-43.21-55.17-126.36,10.53Z" transform="translate(-228.17 -231.46)"/><path class="cls-2" d="M825.65,517.92s-18.94,41.61-9.44,42.78c0,0-48.57,2.91-57.08,19.58l3.76-22.77S800.28,541.26,825.65,517.92Z" transform="translate(-228.17 -231.46)"/><path class="cls-3" d="M773.62,554A434.82,434.82,0,0,0,828,516s7.29-6,12.77-10.86c29.9-26.72,50.45-80.46,59.57-107.23,0,0,147.65,17,163.29,133-6.68-16.18-123.09-82.85-112.16,52.07-2.32-13-65.65-77.67-87.22,2-15.65-9.6-43.21-55.17-126.36,10.53Z" transform="translate(-228.17 -231.46)"/><path d="M943.24,505.51l-22-87s44-2.06,107.31,64.67C953.59,417.32,927.37,426.45,943.24,505.51Z" transform="translate(-228.17 -231.46)"/><path d="M874.44,487.52s19.47-15,30.72-36.46l18.76,58C904.5,471.66,898.76,469.15,874.44,487.52Z" transform="translate(-228.17 -231.46)"/><path class="cls-1" d="M523.21,554a434.82,434.82,0,0,1-54.35-38s-7.29-6-12.77-10.86c-29.9-26.72-50.45-80.46-59.57-107.23,0,0-147.65,17-163.29,133,6.68-16.18,123.09-82.85,112.16,52.07,2.32-13,65.65-77.67,87.22,2,15.65-9.6,43.21-55.17,126.36,10.53Z" transform="translate(-228.17 -231.46)"/><path class="cls-1" d="M556.58,700.75s-7.16,32.58-49.61-13.92-107.61-39.51-107.61-39.51c77.35,16.81,86.81,107.23,86.81,107.23l29.76,36.84,40.65-6.87L583.77,757Z" transform="translate(-228.17 -231.46)"/><path class="cls-2" d="M524.29,754.44S479.44,732.86,472.07,709l18.29,51S520.58,762.51,524.29,754.44Z" transform="translate(-228.17 -231.46)"/><path class="cls-3" d="M556.58,700.75s-7.16,32.58-49.61-13.92-107.61-39.51-107.61-39.51c77.35,16.81,86.81,107.23,86.81,107.23l29.76,36.84,40.65-6.87L583.77,757Z" transform="translate(-228.17 -231.46)"/><path class="cls-1" d="M556.58,691.27s-.84,126.11-135.36,40.36-166.47,35.31-166.47,35.31,42.88-57.17,87-37.84,48.34,52.13,63.9,78.19,20.59,26.07,20.59,26.07L555,851.93l97.05-64.66L648,717.1Z" transform="translate(-228.17 -231.46)"/><path class="cls-2" d="M392.26,780.29s1.34,1.07,3.84,2.87c16.17,11.6,80.61,53.43,141.59,31.18,0,0-35.35,19.14-84.27,15.64l-36,.43" transform="translate(-228.17 -231.46)"/><path class="cls-2" d="M577.38,770.76s-19.26-41.28-32.1-32.1c0,0,15.59-39.44,13.76-50.45s44,59.62,44,59.62Z" transform="translate(-228.17 -231.46)"/><path class="cls-2" d="M471.18,517.92s18.94,41.61,9.44,42.78c0,0,48.57,2.91,57.07,19.58l-3.75-22.77S496.55,541.26,471.18,517.92Z" transform="translate(-228.17 -231.46)"/><path class="cls-3" d="M523.21,554a434.82,434.82,0,0,1-54.35-38s-7.29-6-12.77-10.86c-29.9-26.72-50.45-80.46-59.57-107.23,0,0-147.65,17-163.29,133,6.68-16.18,123.09-82.85,112.16,52.07,2.32-13,65.65-77.67,87.22,2,15.65-9.6,43.21-55.17,126.36,10.53Z" transform="translate(-228.17 -231.46)"/><path class="cls-3" d="M556.58,691.27s-.84,126.11-135.36,40.36-166.47,35.31-166.47,35.31,42.88-57.17,87-37.84,48.34,52.13,63.9,78.19,20.59,26.07,20.59,26.07L555,851.93l97.05-64.66L648,717.1Z" transform="translate(-228.17 -231.46)"/><path class="cls-4" d="M648,776.54l28-11.67,54.54-22.72c-8.67-19.32-3.9-39.94,15.14-61.91,20.52-4.18,37.4-14.41,46.77-37.15-2.7-6-9.92-21.85-20.63-45.4-7.48-23.89-4.64-48.1,17.88-72.92,40.9-27.14,70.95-69.26,77-144.46C852.08,295.79,775.13,249.66,648,234.48h0c-127.13,15.18-204.08,61.31-218.76,145.83,6.1,75.2,36.15,117.32,77.05,144.46,22.52,24.82,25.36,49,17.88,72.92l-20.63,45.4c9.38,22.74,26.26,33,46.77,37.15,19,22,23.81,42.59,15.14,61.91L620,764.87Z" transform="translate(-228.17 -231.46)"/><path class="cls-5" d="M716.31,740.5S706,838,850.63,829.62,984.72,996.09,984.72,996.09s-26.9-109.3-137.88-100.89S656,888.47,648,848.12c-8,40.35-87.86,55.48-198.84,47.08S311.29,996.09,311.29,996.09s-10.51-174.88,134.1-166.47S579.71,740.5,579.71,740.5" transform="translate(-228.17 -231.46)"/><path class="cls-6" d="M610.25,643.24a28.74,28.74,0,1,1-38.76-14.81" transform="translate(-228.17 -231.46)"/><path d="M597,691.27l5.88-12.76c1.93-4.21,3.79-8.4,5.51-12.57.84-2.1,1.67-4.17,2.4-6.25s1.41-4.14,1.94-6.18a35.11,35.11,0,0,0,1.15-5.89,13.7,13.7,0,0,0-.21-4.68l5.47,4.86c-2.14-.13-4-.33-6-.55s-3.94-.49-5.9-.79c-3.91-.59-7.8-1.33-11.66-2.19a154.5,154.5,0,0,1-22.73-6.9c-3.7-1.45-7.34-3.09-10.91-4.86a112.19,112.19,0,0,1-10.36-6,87.19,87.19,0,0,1-9.52-7.25,60.55,60.55,0,0,1-8.08-8.72c3.53,1.8,7,3.51,10.46,5.05s7,2.92,10.54,4.21c1.78.61,3.53,1.28,5.33,1.84s3.56,1.17,5.34,1.73c3.58,1.11,7.18,2.11,10.79,3.1,7.24,1.88,14.52,3.62,21.87,5.11,3.67.77,7.35,1.46,11,2.14,1.84.31,3.68.66,5.53,1s3.73.6,5.42.84l4.74.69.73,4.18a23.93,23.93,0,0,1-.3,9.14,43.8,43.8,0,0,1-2.42,7.54,75.94,75.94,0,0,1-7.12,12.9,110.27,110.27,0,0,1-8.77,11.3A93.6,93.6,0,0,1,597,691.27Z" transform="translate(-228.17 -231.46)"/><path class="cls-2" d="M328.82,957.87c-1.46-13.21,14.72-40.22,30.27-66.73-20.7,19.52-38.55,39.63-46.09,61.91l-1.38,35.77Z" transform="translate(-228.17 -231.46)"/><path d="M649,743.54c1.5,8,2.63,16,3.8,23.93s2.08,15.95,2.85,23.92c.37,4,1.19,8,1.8,12a41,41,0,0,1,.1,12,68.16,68.16,0,0,1-2.79,12,47.93,47.93,0,0,1-5.76,12h-1.9a47.63,47.63,0,0,1-5.77-12,67.24,67.24,0,0,1-2.78-12,40.63,40.63,0,0,1,.09-12c.61-4,1.43-8,1.81-12q1.14-12,2.85-23.92c1.16-8,2.29-16,3.8-23.93Z" transform="translate(-228.17 -231.46)"/><path d="M605.53,716.08a42.48,42.48,0,0,1,.33,10.71,66.29,66.29,0,0,1-1.54,9.7,74.9,74.9,0,0,1-2.71,9.29,68,68,0,0,1-4.19,9.66,21.64,21.64,0,0,1-3.62-10.55,34.08,34.08,0,0,1,.77-10.64,36.42,36.42,0,0,1,3.82-9.82,30.92,30.92,0,0,1,3-4.44A21.55,21.55,0,0,1,605.53,716.08Z" transform="translate(-228.17 -231.46)"/><path d="M690.48,716.08a21,21,0,0,1,4.1,3.91,31.83,31.83,0,0,1,3,4.44,36.72,36.72,0,0,1,3.81,9.82,34.38,34.38,0,0,1,.78,10.64,21.75,21.75,0,0,1-3.63,10.55,68,68,0,0,1-4.19-9.66,76.66,76.66,0,0,1-2.71-9.29,69.09,69.09,0,0,1-1.54-9.7A43.43,43.43,0,0,1,690.48,716.08Z" transform="translate(-228.17 -231.46)"/><path class="cls-2" d="M648,848.12s108.31,51.37,162,49C810,897.15,663.6,903.46,648,848.12Z" transform="translate(-228.17 -231.46)"/><path class="cls-2" d="M967.54,962c1.46-13.21-14.72-40.21-30.27-66.72,20.7,19.51,38.55,39.63,46.09,61.91L984.73,993Z" transform="translate(-228.17 -231.46)"/><path class="cls-2" d="M648,848.12s-108.31,51.37-162,49C486,897.15,632.41,903.46,648,848.12Z" transform="translate(-228.17 -231.46)"/><path class="cls-3" d="M716.31,740.5S706,838,850.63,829.62,984.72,996.09,984.72,996.09s-26.9-109.3-137.88-100.89S656,888.47,648,848.12c-8,40.35-87.86,55.48-198.84,47.08S311.29,996.09,311.29,996.09s-10.51-174.88,134.1-166.47S579.71,740.5,579.71,740.5" transform="translate(-228.17 -231.46)"/><path d="M585.94,648.93c.25,2.41.46,3.84.61,5a8,8,0,0,1,.15,2.35,7.51,7.51,0,0,1-1,2c-.36.47-.58,1-1,1.75s-.8,1.53-1.48,2.63a6.24,6.24,0,0,1-.88-.09c-.27-.05-.53-.12-.79-.19a5.79,5.79,0,0,1-1.44-.58,6.76,6.76,0,0,1-2.1-1.95,7.54,7.54,0,0,1,2.09-10.33A6.45,6.45,0,0,1,585.94,648.93Z" transform="translate(-228.17 -231.46)"/><path class="cls-2" d="M648,662.66l-17.43,20.5s17.43-13.29,17.43-6Z" transform="translate(-228.17 -231.46)"/><path class="cls-2" d="M648,662.66l17.42,20.5S648,669.87,648,677.2Z" transform="translate(-228.17 -231.46)"/><path class="cls-2" d="M863.79,387.87s-32.79,79.75-68,93.51c0,0,71.52-94.18,64.95-120.46S863.79,387.87,863.79,387.87Z" transform="translate(-228.17 -231.46)"/><path class="cls-2" d="M745.06,523.57s-19.65,37.61-18.08,58.7C727,582.27,710.2,549.25,745.06,523.57Z" transform="translate(-228.17 -231.46)"/><path d="M353.59,505.51l22-87s-44-2.06-107.31,64.67C343.24,417.32,369.46,426.45,353.59,505.51Z" transform="translate(-228.17 -231.46)"/><path d="M332.26,307.8" transform="translate(-228.17 -231.46)"/><path d="M422.39,487.52s-19.47-15-30.72-36.46l-18.76,58C392.33,471.66,398.07,469.15,422.39,487.52Z" transform="translate(-228.17 -231.46)"/><path class="cls-2" d="M581.59,246.4S648,257.13,648,299.32V234.48Z" transform="translate(-228.17 -231.46)"/><path d="M393.33,517.92" transform="translate(-228.17 -231.46)"/><path class="cls-2" d="M714.42,246.4S648,257.13,648,299.32V234.48Z" transform="translate(-228.17 -231.46)"/><path class="cls-2" d="M430.21,390.17s32.8,79.75,68,93.51c0,0-71.51-94.19-64.94-120.47S430.21,390.17,430.21,390.17Z" transform="translate(-228.17 -231.46)"/><path class="cls-7" d="M730.55,742.15c-8.67-19.32-3.9-39.94,15.14-61.91,20.52-4.18,37.4-14.41,46.77-37.15-2.7-6-9.92-21.85-20.63-45.4-7.48-23.89-4.64-48.1,17.88-72.92,40.9-27.14,70.95-69.26,77-144.46C852.08,295.79,775.13,249.66,648,234.48h0c-127.13,15.18-204.08,61.31-218.76,145.83,6.1,75.2,36.15,117.32,77.05,144.46,22.52,24.82,25.36,49,17.88,72.92l-20.63,45.4c9.38,22.74,26.26,33,46.77,37.15,19,22,23.81,42.59,15.14,61.91" transform="translate(-228.17 -231.46)"/><path class="cls-2" d="M549,525.87s19.64,37.6,18.08,58.7C567,584.57,583.8,551.55,549,525.87Z" transform="translate(-228.17 -231.46)"/><path d="M649,407.55c1.5,15.78,2.63,31.57,3.8,47.35l1.56,23.67,1.29,23.68c.38,7.89,1.19,15.78,1.8,23.67a160,160,0,0,1,.1,23.68c-.56,7.89-1.47,15.78-2.79,23.68A148.84,148.84,0,0,1,649,597h-1.9a147.81,147.81,0,0,1-5.77-23.67c-1.32-7.9-2.23-15.79-2.78-23.68a158.63,158.63,0,0,1,.09-23.68c.61-7.89,1.42-15.78,1.81-23.67l1.28-23.68,1.57-23.67c1.16-15.78,2.29-31.57,3.8-47.35Z" transform="translate(-228.17 -231.46)"/><path class="cls-6" d="M687.71,643.39a28.75,28.75,0,1,0,38.76-14.8" transform="translate(-228.17 -231.46)"/><path d="M701,691.43a94.52,94.52,0,0,1-10.12-10,112.82,112.82,0,0,1-8.77-11.3,75.94,75.94,0,0,1-7.12-12.9,42.94,42.94,0,0,1-2.41-7.54,23.92,23.92,0,0,1-.31-9.14l.73-4.18,4.75-.69c1.68-.25,3.6-.53,5.42-.84s3.68-.64,5.53-1c3.68-.68,7.37-1.37,11-2.14,7.35-1.49,14.63-3.23,21.87-5.11,3.61-1,7.21-2,10.79-3.1,1.78-.56,3.58-1.11,5.35-1.73s3.54-1.23,5.32-1.84c3.54-1.29,7-2.7,10.54-4.21s6.93-3.25,10.46-5a60,60,0,0,1-8.08,8.72,87.07,87.07,0,0,1-9.51,7.25,116.08,116.08,0,0,1-10.37,6c-3.57,1.77-7.2,3.41-10.9,4.86a154.26,154.26,0,0,1-22.74,6.9c-3.86.85-7.74,1.6-11.66,2.19-2,.3-3.92.56-5.89.79s-3.9.42-6,.55l5.47-4.86a13.49,13.49,0,0,0-.2,4.68,34.13,34.13,0,0,0,1.15,5.89c.52,2,1.19,4.1,1.94,6.18s1.55,4.15,2.39,6.25c1.72,4.17,3.58,8.36,5.52,12.57Z" transform="translate(-228.17 -231.46)"/><path d="M712,649.09a6.47,6.47,0,0,1,5.9.59,7.33,7.33,0,0,1,3.14,4.7A7.25,7.25,0,0,1,720,660a6.54,6.54,0,0,1-2.1,2,6.11,6.11,0,0,1-1.43.58c-.27.07-.53.14-.79.19a6.23,6.23,0,0,1-.89.09c-.68-1.1-1.06-1.91-1.47-2.63s-.68-1.28-1-1.75a7.22,7.22,0,0,1-1-2,7.91,7.91,0,0,1,.14-2.35C711.56,652.93,711.78,651.5,712,649.09Z" transform="translate(-228.17 -231.46)"/><path class="cls-2" d="M710.83,791.39s-9.63,23.39-28.89,34.4S710.83,791.39,710.83,791.39Z" transform="translate(-228.17 -231.46)"/><path class="cls-2" d="M584.53,792.08s9.63,23.39,28.89,34.4S584.53,792.08,584.53,792.08Z" transform="translate(-228.17 -231.46)"/></svg>