<svg id="Layer_1" data-name="Layer 1" xmlns="http://www.w3.org/2000/svg" viewBox="0 0 1211.67 912.96"><defs><style>.cls-1{fill:none;stroke:#000;stroke-miterlimit:10;stroke-width:6px;}</style></defs><title>Cthulhu</title><path d="M546.05,801.93l5.87-12.77c1.94-4.2,3.79-8.4,5.51-12.57.85-2.09,1.68-4.16,2.4-6.24s1.42-4.14,1.94-6.18a34.13,34.13,0,0,0,1.15-5.89,13.8,13.8,0,0,0-.2-4.69l5.47,4.87c-2.15-.13-4.05-.34-6.05-.55s-3.94-.49-5.89-.79c-3.92-.59-7.8-1.34-11.66-2.19A154.3,154.3,0,0,1,521.85,748c-3.7-1.45-7.33-3.08-10.9-4.85a116.08,116.08,0,0,1-10.37-6,88.35,88.35,0,0,1-9.51-7.25,60.06,60.06,0,0,1-8.08-8.73c3.53,1.81,7,3.51,10.46,5s7,2.92,10.54,4.21c1.78.62,3.52,1.29,5.32,1.85s3.57,1.16,5.35,1.73c3.58,1.1,7.18,2.11,10.79,3.09,7.24,1.89,14.52,3.62,21.87,5.12,3.66.77,7.35,1.46,11,2.13,1.85.32,3.69.67,5.53,1s3.74.6,5.42.85l4.75.68.73,4.18a24,24,0,0,1-.31,9.15,43.49,43.49,0,0,1-2.41,7.54,76.54,76.54,0,0,1-7.12,12.89,110.58,110.58,0,0,1-8.77,11.3A95.55,95.55,0,0,1,546.05,801.93Z" transform="translate(-22.72 -279.04)"/><path d="M467.5,776.49a27.58,27.58,0,0,0-7.32-7,45.2,45.2,0,0,0-8.92-4.69,60.25,60.25,0,0,0-9.64-2.86,79.48,79.48,0,0,0-9.94-1.5c-13.39-1.17-26.88.54-40.06,3.14a277.18,277.18,0,0,0-38.87,11.22c-12.74,4.52-25.21,9.82-37.55,15.41l-9.28,4.2.78-10.51c.06-.87.12-2,.16-3s.06-2.09.08-3.14c0-2.1,0-4.21,0-6.32q-.18-6.33-.83-12.64a144.92,144.92,0,0,0-4.64-24.65c-4.51-15.92-12.39-30.7-24.19-41a64.49,64.49,0,0,0-20-11.84,85.38,85.38,0,0,0-23.29-4.93c-16.19-1.16-32.92,1.25-49.28,5.32l-33.12,8.23,25-24.25.65-.63c.28-.28.56-.56.85-.88.58-.6,1.16-1.26,1.73-1.92,1.15-1.34,2.26-2.76,3.33-4.21a87,87,0,0,0,5.85-9.25,100.56,100.56,0,0,0,8.37-20.56,105.46,105.46,0,0,0,2.57-10.91c.7-3.69,1.16-7.43,1.52-11.18a145.26,145.26,0,0,0,.14-22.76,195,195,0,0,0-9.13-45.32q-3.58-11.15-8.15-22c-3.09-7.23-6.34-14.41-9.92-21.45a428.8,428.8,0,0,0-23.93-41.13c-8.67-13.36-18-26.35-27.81-39s-20-25-30.63-37.12-21.52-23.91-32.63-35.57L22.72,303.44l46.9,24.27c10.83,5.6,21.95,11.09,33,16.45s22.23,10.68,33.43,15.83,22.44,10.22,33.75,15.12,22.67,9.65,34.09,14.26,22.93,9,34.51,13.1,23.25,8,35,11.37a307.39,307.39,0,0,0,35.68,8.32,151,151,0,0,0,18.05,1.9A76.91,76.91,0,0,0,345,423l3.75-.76-.47,3.64c-.16,1.22-.26,2.69-.3,4.06s0,2.8,0,4.21a65.84,65.84,0,0,0,.84,8.4,58.8,58.8,0,0,0,5.07,16.13,49.22,49.22,0,0,0,9.89,13.85,55.7,55.7,0,0,0,14.12,10,59.67,59.67,0,0,1-7.91-3.78,52.7,52.7,0,0,1-7.22-5.07A51.66,51.66,0,0,1,351.31,460a60.66,60.66,0,0,1-6.56-16.68,70.07,70.07,0,0,1-1.51-8.88c-.16-1.5-.27-3-.33-4.52a45.41,45.41,0,0,1,0-4.66l3.28,2.88a78.34,78.34,0,0,1-19.11,2.47,157.79,157.79,0,0,1-19-.91A314.39,314.39,0,0,1,271,423.25c-24.4-5.71-48.23-13.27-71.73-21.59-11.76-4.15-23.41-8.57-35-13.12s-23.13-9.25-34.58-14.13-22.85-9.88-34.2-15S72.91,349,61.61,343.48l10.32-14.09q17.4,17.34,33.93,35.6c11,12.18,21.72,24.65,31.91,37.59s20,26.24,29.14,40a449.39,449.39,0,0,1,25.19,43q5.68,11.14,10.57,22.74t8.68,23.7a226.68,226.68,0,0,1,6.4,24.61,190.79,190.79,0,0,1,3.41,25.42,165,165,0,0,1-.43,25.91c-.45,4.33-1,8.65-1.89,12.94a126.19,126.19,0,0,1-3.12,12.76A116.31,116.31,0,0,1,205.38,658,104.1,104.1,0,0,1,198,669.2c-1.36,1.8-2.79,3.56-4.32,5.28-.76.86-1.54,1.72-2.38,2.57-.41.42-.84.84-1.29,1.28l-.7.65-.37.35-.51.44-8.15-16a209,209,0,0,1,27.13-4.57,150.54,150.54,0,0,1,28-.14,101.69,101.69,0,0,1,27.9,6.64A81,81,0,0,1,288,681.25a86.44,86.44,0,0,1,17.45,22.92,115.35,115.35,0,0,1,9.86,26.3,152.61,152.61,0,0,1,4.09,27.23q.44,6.82.33,13.66,0,3.42-.24,6.85c-.06,1.14-.14,2.28-.23,3.43s-.19,2.25-.34,3.57l-8.51-6.3c12.88-5.09,26-9.7,39.3-13.6a286.2,286.2,0,0,1,40.75-8.8A161.46,161.46,0,0,1,411.3,755a117,117,0,0,1,20.89,1.57,69,69,0,0,1,19.93,6.35,46.63,46.63,0,0,1,8.73,5.73A27.11,27.11,0,0,1,467.5,776.49Z" transform="translate(-22.72 -279.04)"/><path d="M504.93,861.06a92.84,92.84,0,0,1-.46,12.24,100.89,100.89,0,0,1-1.9,12.17,81.92,81.92,0,0,1-8.71,23.31,59.9,59.9,0,0,1-7.54,10.28,50.8,50.8,0,0,1-9.93,8.29,52.44,52.44,0,0,1-24.67,7.82,78.08,78.08,0,0,1-12.89-.15,104.13,104.13,0,0,1-12.61-2,150.54,150.54,0,0,1-24-7.81,226,226,0,0,1-22.47-10.9c-3.62-2-7.24-4-10.76-6.21l-5.23-3.15c-1.71-1-3.4-2.07-5.14-3-6.9-4-13.94-7.65-21.12-10.92a167.21,167.21,0,0,0-21.95-8.32c-14.83-4.5-30.34-6.44-45-3.86a69.26,69.26,0,0,0-38.34,20.81,87.75,87.75,0,0,0-7.27,8.65,96.52,96.52,0,0,0-6.27,9.52A107.76,107.76,0,0,0,213.5,928c-.77,1.75-1.5,3.52-2.17,5.29-.34.89-.66,1.78-1,2.66l-.43,1.31-.37,1.19-11.79-5.71c.93-1.19,1.72-2.13,2.59-3.16s1.71-2,2.59-2.95c1.74-1.94,3.53-3.82,5.37-5.66a151.7,151.7,0,0,1,11.57-10.5A105.5,105.5,0,0,1,247,894.11a67.62,67.62,0,0,1,15.77-4.17,54.44,54.44,0,0,1,16.56.27c1.36.29,2.73.54,4.08.89l4,1.21c1.3.48,2.56,1,3.84,1.55l.95.39.87.44,1.74.89,3.48,1.78,1.74.89c.57.3,1.12.67,1.68,1l3.34,2.06c1.09.71,2.25,1.31,3.28,2.13l3.16,2.34L313,907l.79.58.74.65,3,2.59a36.39,36.39,0,0,1,2.87,2.68l2.73,2.83c.45.47.92.93,1.35,1.42l1.24,1.52,2.48,3c.83,1,1.52,2.11,2.28,3.16s1.52,2.11,2.22,3.2l2,3.3,1,1.65.91,1.69,1.81,3.39c1.13,2.28,2.24,4.58,3.3,6.88s2.06,4.61,3,6.91c2,4.63,3.88,9.2,5.87,13.73s4.12,8.92,6.59,13.25,4.92,8.62,7.63,12.78c1.36,2.07,2.78,4.1,4.33,6l1.19,1.41c.43.45.83.93,1.27,1.36l.67.64.7.6a4.66,4.66,0,0,0,1.61.9,4.69,4.69,0,0,1-1.73-.72l-.79-.52-.75-.58c-.5-.38-1-.81-1.44-1.22l-1.36-1.31c-1.77-1.79-3.42-3.69-5-5.64-3.2-3.89-6.09-8-8.91-12.15s-5.46-8.51-7.92-12.9-4.63-8.92-6.91-13.33c-1.12-2.22-2.3-4.38-3.46-6.56s-2.41-4.27-3.66-6.37l-1.94-3.08-1-1.54-1-1.48-2.07-3c-.7-1-1.48-1.88-2.22-2.82a82.19,82.19,0,0,0-21.23-18.75c-1-.69-2.06-1.19-3.08-1.78L297,907.72c-.53-.28-1-.6-1.57-.85l-1.63-.74-3.26-1.48-1.63-.74-.81-.37-.79-.28c-1.06-.36-2.1-.76-3.16-1.1l-3.22-.83c-1.08-.22-2.18-.36-3.26-.55-8.76-1.19-17.78.6-26.17,4.27A93.46,93.46,0,0,0,228,920.23a137.32,137.32,0,0,0-10.38,9.82c-1.65,1.72-3.26,3.49-4.81,5.29-.78.9-1.54,1.81-2.28,2.72s-1.52,1.88-2.1,2.67l-20.59,27.7,8.8-33.41c.18-.72.32-1.17.49-1.74l.5-1.59c.34-1,.69-2.08,1.07-3.09q1.11-3.06,2.39-6A119.71,119.71,0,0,1,206.84,911a104.92,104.92,0,0,1,15.38-21,86.6,86.6,0,0,1,20.88-16.22,80.25,80.25,0,0,1,25.11-8.69,93,93,0,0,1,26.21-.67c2.16.18,4.28.58,6.43.87s4.24.73,6.32,1.24l3.14.71,3.1.81c2.07.52,4.09,1.18,6.13,1.79A179.73,179.73,0,0,1,343,879.29a236,236,0,0,1,21.91,12.07c1.79,1.06,3.51,2.21,5.27,3.32l5.13,3.3q5,3.27,10.16,6.35a231.63,231.63,0,0,0,21,11.24,149.06,149.06,0,0,0,22,8.36,97.63,97.63,0,0,0,11.36,2.49,71.33,71.33,0,0,0,11.46.81,47.48,47.48,0,0,0,21.81-5.42,45.14,45.14,0,0,0,9.26-6.65,54.9,54.9,0,0,0,7.54-8.86,80.81,80.81,0,0,0,10.19-21.48A113.43,113.43,0,0,0,504.93,861.06Z" transform="translate(-22.72 -279.04)"/><path class="cls-1" d="M559.3,753.89a28.75,28.75,0,1,1-38.76-14.81" transform="translate(-22.72 -279.04)"/><path d="M428.64,928.78A177,177,0,0,0,417.5,894a168.54,168.54,0,0,0-8.16-16.16A136.43,136.43,0,0,0,399.27,863c-1.8-2.38-3.8-4.58-5.74-6.83s-4.07-4.32-6.28-6.28l-1.62-1.51c-.55-.49-1.13-1-1.69-1.43-1.14-.93-2.24-1.92-3.41-2.8L377,841.51a20.81,20.81,0,0,0-1.82-1.24l-1.85-1.19-1.85-1.2c-.61-.4-1.27-.72-1.9-1.09l-3.85-2.14-4-1.88c-.67-.3-1.31-.65-2-.91l-2-.81a104,104,0,0,0-16.81-5.16L315,819.65l26.41-2.53c2.15-.21,4-.3,6-.36s3.93-.08,5.89,0q5.87.06,11.71.6c3.89.36,7.76.87,11.62,1.48s7.69,1.44,11.48,2.39a135.58,135.58,0,0,1,22.22,7.55,118.81,118.81,0,0,1,20.51,11.47,112.3,112.3,0,0,1,17.72,15.35c1.3,1.44,2.67,2.92,3.88,4.32s2.44,2.85,3.72,4.21,2.52,2.77,3.85,4.07l2,2,2,1.91c1.33,1.3,2.77,2.46,4.15,3.71s2.87,2.33,4.38,3.37a36.09,36.09,0,0,0,9.61,5,17.25,17.25,0,0,0,5.22.78,10.61,10.61,0,0,0,5-1.39,15.47,15.47,0,0,0,6.66-8.59,15.78,15.78,0,0,1-5.86,9.85,12.42,12.42,0,0,1-5.64,2.23,19.06,19.06,0,0,1-6.08-.23,37.94,37.94,0,0,1-11-4.5c-1.72-1-3.33-2.06-5-3.14s-3.17-2.28-4.65-3.53l-2.25-1.85-2.19-1.91c-1.48-1.25-2.85-2.61-4.27-3.92s-2.75-2.7-4.13-4.05l-4-3.92a115.55,115.55,0,0,0-17.39-13.58A131,131,0,0,0,386,829.71c-3.59-.85-7.22-1.5-10.86-2.11s-7.31-1-11-1.35-7.37-.51-11.05-.58c-1.84,0-3.68,0-5.51,0s-3.71.13-5.33.28l.47-8.78A110.27,110.27,0,0,1,361,823.07l2.21.93c.74.31,1.44.71,2.16,1.06l4.28,2.16,4.13,2.44c.69.42,1.39.8,2.05,1.25l2,1.35,2,1.37c.66.45,1.31.9,1.93,1.41l3.74,3c1.24,1,2.39,2.11,3.58,3.16.59.54,1.19,1.05,1.76,1.61l1.67,1.7c2.28,2.22,4.33,4.64,6.41,7s3.94,4.94,5.7,7.56a132.65,132.65,0,0,1,16.66,33.49,154.08,154.08,0,0,1,4.89,17.91A124.79,124.79,0,0,1,428.64,928.78Z" transform="translate(-22.72 -279.04)"/><path d="M624,832.47c1.5,11.84,2.63,23.68,3.8,35.52s2.08,23.69,2.85,35.53c.38,5.92,1.2,11.84,1.8,17.76a88.58,88.58,0,0,1,.1,17.76,141.77,141.77,0,0,1-2.79,17.76A89.38,89.38,0,0,1,624,974.56h-1.9a89.38,89.38,0,0,1-5.76-17.76A141.77,141.77,0,0,1,613.56,939a89.33,89.33,0,0,1,.09-17.76c.61-5.92,1.43-11.84,1.81-17.76q1.15-17.76,2.85-35.53c1.16-11.84,2.3-23.68,3.8-35.52Z" transform="translate(-22.72 -279.04)"/><path d="M245.63,564c6.25-8.75,12.41-17.58,18.55-26.41s12.19-17.73,18.13-26.68,11.79-18,17.35-27.11c2.77-4.57,5.47-9.18,8-13.85.62-1.16,1.25-2.33,1.82-3.5l.88-1.76.8-1.76c.56-1.18,1-2.34,1.43-3.5l.52-1.67c.12-.52.16-.95.27-1.43l3,3.59c-7.15-.45-14.18-1.1-21.25-1.83S281,456.52,274,455.58a342.25,342.25,0,0,1-42-7.83c-3.45-.9-6.89-1.89-10.31-2.9-1.71-.52-3.41-1.1-5.11-1.65s-3.4-1.12-5.09-1.73a182,182,0,0,1-19.9-8.23A119.16,119.16,0,0,1,173,422.14c-5.75-4.37-11.12-9.47-14.82-15.66l.72-.53a68.22,68.22,0,0,0,16.53,12.46l4.58,2.41c1.55.76,3.15,1.45,4.69,2.2s3.18,1.36,4.76,2.05c.8.32,1.59.67,2.4,1l2.44.9c3.2,1.28,6.51,2.37,9.78,3.48s6.61,2.1,10,3.05q2.49.75,5,1.41c1.68.44,3.35.91,5,1.32l5.06,1.3c1.68.43,3.39.81,5.08,1.21,13.55,3.23,27.21,6.23,41,8.81,6.89,1.26,13.82,2.36,20.76,3.37s13.93,1.83,20.84,2.5l3.67.35-.65,3.24c-.16.84-.32,1.74-.54,2.52l-.75,2.16c-.57,1.32-1.11,2.69-1.75,3.92l-.93,1.88-1,1.82c-.64,1.23-1.33,2.41-2,3.59-2.76,4.73-5.69,9.29-8.67,13.81q-9,13.51-18.59,26.53-19.14,26.07-39.28,51.33Z" transform="translate(-22.72 -279.04)"/><path d="M246,645c9.19-16.7,19.06-32.89,29.06-49s20.25-32,30.48-47.87l7.66-11.9c2.57-4,5.08-8,7.6-11.92,5-8,10-16,14.38-24l1.51-3,.64-1.47a14.85,14.85,0,0,0,.58-1.43l.42-1.29c.14-.62.29-1.29.48-2a13.42,13.42,0,0,1,.87-2.31A5.5,5.5,0,0,1,341.1,487a3.18,3.18,0,0,1,.37-.27,4.16,4.16,0,0,1,1.9-.64,4.7,4.7,0,0,1,.75,0,2.74,2.74,0,0,1,.61.13,3.68,3.68,0,0,1,1,.43,5.91,5.91,0,0,1,.64.47c.14.13.27.27.4.41a6,6,0,0,1,.55.71l.36.6.28.55a17.43,17.43,0,0,1,.78,2,37.79,37.79,0,0,1,1,3.67c.56,2.41,1,4.78,1.4,7.15.77,4.75,1.38,9.48,1.83,14.23q.34,3.55.63,7.12c.15,2.38.33,4.75.41,7.14-2.57-9.18-4.93-18.39-7.65-27.37-.68-2.24-1.38-4.47-2.17-6.61-.4-1.06-.8-2.12-1.24-3.06a11.3,11.3,0,0,0-.67-1.27l-.15-.23L342,492s-.06-.06,0,0l.08.09a1.36,1.36,0,0,0,.28.21,2.34,2.34,0,0,0,.58.26,3.13,3.13,0,0,0,.4.08,1.87,1.87,0,0,0,.53,0,2.89,2.89,0,0,0,.91-.22,2.12,2.12,0,0,0,.37-.21,1.22,1.22,0,0,0,.19-.12c.51-.47.4-.42.43-.4s-.15.61-.24,1.05-.15,1-.22,1.52l-.46,2.14a6.14,6.14,0,0,1-.27,1l-.3.93-.62,1.85-1.4,3.46c-2,4.5-4.12,8.81-6.38,13.05s-4.61,8.39-7,12.53-4.87,8.19-7.35,12.25-5.05,8.06-7.61,12.07q-15.46,24-32.41,46.85C270.23,615.67,258.57,630.67,246,645Z" transform="translate(-22.72 -279.04)"/><path d="M354.37,655.07c.31,4.6.36,9.21.28,13.81s-.28,9.22-.61,13.83-.83,9.21-1.47,13.8-1.46,9.16-2.41,13.71-2,9.1-3.2,13.63A80,80,0,0,1,342,737a86.83,86.83,0,0,1-7.21,12.14,60.2,60.2,0,0,1-9.52,10.39l-.55-.43c2-4.24,4-8.3,5.78-12.43s3.48-8.27,5.07-12.45c3.05-8.38,6.67-16.63,9.13-25.35q1.83-6.52,3.27-13.19c1-4.43,1.84-8.9,2.58-13.4a247.58,247.58,0,0,0,3.1-27.21Z" transform="translate(-22.72 -279.04)"/><path d="M539.13,840.27a18.27,18.27,0,0,0-2.47-8.7,46.32,46.32,0,0,0-5.32-7.67,79.41,79.41,0,0,0-6.53-6.83,92,92,0,0,0-7.16-6.09l.6.38a249.42,249.42,0,0,1-39.83-20.81q-9.51-6.09-18.49-13c-6-4.61-11.71-9.56-17.26-14.71a263,263,0,0,1-30.49-33.78q-6.9-9.1-13-18.83c-4-6.49-7.73-13.18-11.19-20a262.07,262.07,0,0,1-26.29-87.93q-1.25-11.5-1.53-23.1t.43-23.16a298.37,298.37,0,0,1,6.43-45.81A317,317,0,0,1,457,350.8a280.45,280.45,0,0,1,36.45-29.34,259.23,259.23,0,0,1,41.22-22.82,237.72,237.72,0,0,1,45.14-14.54,221.58,221.58,0,0,1,94.67.11,239.3,239.3,0,0,1,45.1,14.64,260.75,260.75,0,0,1,41.17,22.9,282.85,282.85,0,0,1,36.4,29.41,308.27,308.27,0,0,1,31.11,34.64A317.48,317.48,0,0,1,886.8,510.71a296.19,296.19,0,0,1,6.36,45.84A276.08,276.08,0,0,1,892,602.82a260.92,260.92,0,0,1-26.44,87.91,256.65,256.65,0,0,1-54.78,72.57c-5.56,5.15-11.32,10.07-17.28,14.7S781.3,787,775,791a254.81,254.81,0,0,1-39.88,20.78l.95-.69c-2.54,2.51-5.07,5.2-7.49,7.91s-4.78,5.5-7,8.37a97.5,97.5,0,0,0-6.25,8.9,34.77,34.77,0,0,0-4.39,9.72l-1.78-.3a36.15,36.15,0,0,1,4-10.57,98.9,98.9,0,0,1,5.94-9.46c2.14-3,4.39-6,6.72-8.88s4.73-5.7,7.25-8.46l.13-.14.18-.08A253.92,253.92,0,0,0,879,601.61a261.74,261.74,0,0,0,.3-44,281.48,281.48,0,0,0-6.88-43.48,305.52,305.52,0,0,0-32.64-81.56,301.61,301.61,0,0,0-54.44-68.9,256.42,256.42,0,0,0-72.91-48.53,221.16,221.16,0,0,0-41.77-13.45,208.93,208.93,0,0,0-87.2-.1,219.94,219.94,0,0,0-41.8,13.35,242.56,242.56,0,0,0-38.57,21q-9.15,6.12-17.78,13t-16.66,14.39a301.06,301.06,0,0,0-54.54,68.81,305.52,305.52,0,0,0-32.79,81.5,270.27,270.27,0,0,0-6.75,87.47,252.15,252.15,0,0,0,23,84.6A254.77,254.77,0,0,0,519.86,807.89l.12.06.09.08a96.72,96.72,0,0,1,7.14,6.72,80.93,80.93,0,0,1,6.39,7.43,47.54,47.54,0,0,1,5.19,8.41,20.06,20.06,0,0,1,2.13,9.82Z" transform="translate(-22.72 -279.04)"/><path d="M596.58,478.52a139.51,139.51,0,0,0-6.78-19.24c-1.34-3.09-2.79-6.12-4.39-9s-3.34-5.74-5.19-8.46a79.72,79.72,0,0,0-6.08-7.65,58.75,58.75,0,0,0-7-6.55c-1.21-1-2.57-1.85-3.85-2.79-.67-.42-1.36-.8-2-1.21a19,19,0,0,0-2.08-1.13L557,421.39c-.71-.34-1.45-.6-2.18-.91a40.42,40.42,0,0,0-4.46-1.53,22,22,0,0,0-2.29-.6l-2.31-.55c-1.57-.21-3.13-.51-4.72-.66l-2.39-.19c-.79-.06-1.57-.13-2.49-.17-1.76-.12-3.52-.15-5.28-.37a81.6,81.6,0,0,1-20.82-4.51,54.38,54.38,0,0,1-9.72-4.69,42.73,42.73,0,0,1-8.42-6.78,33.63,33.63,0,0,1-6.06-8.85,24.6,24.6,0,0,1-2.42-10.17,22.61,22.61,0,0,0,1.79,4.77,29.92,29.92,0,0,0,2.56,4.3,39.85,39.85,0,0,0,3.14,3.8,33.09,33.09,0,0,0,3.65,3.26A48,48,0,0,0,512,405.92a92.21,92.21,0,0,0,19.45,2.92c1.64.12,3.31.12,5,.18.8,0,1.72.07,2.64.11l2.73.14c1.82.15,3.63.47,5.44.71l2.7.61a24.87,24.87,0,0,1,2.67.68,51.75,51.75,0,0,1,19.29,10.47,63,63,0,0,1,13.62,16.71,84,84,0,0,1,4.6,9.57,103.1,103.1,0,0,1,3.35,10A84.69,84.69,0,0,1,596.58,478.52Z" transform="translate(-22.72 -279.04)"/><path d="M462.9,759.33a57.27,57.27,0,0,1-12.82-6.9,71.63,71.63,0,0,1-11.15-9.63,64.93,64.93,0,0,1-4.81-5.74c-.77-1-1.47-2-2.18-3.08s-1.36-2.14-2-3.25-1.25-2.23-1.78-3.4l-.83-1.74-.74-1.79a56.69,56.69,0,0,1-2.36-7.42c-.27-1.28-.51-2.57-.72-3.86s-.37-2.6-.43-3.91-.14-2.63-.06-4a32.4,32.4,0,0,1,.25-3.93l.23-2c.1-.62.22-1.21.33-1.82.21-1.2.45-2.4.7-3.6.48-2.41,1.17-4.8,1.86-7.17a49.31,49.31,0,0,1,6.49-13.61,30.52,30.52,0,0,1,2.46-3,20.27,20.27,0,0,1,3-2.53c.27-.18.53-.37.81-.54l.88-.45a10.5,10.5,0,0,1,1.81-.72,7.28,7.28,0,0,1,3.75-.19,7.54,7.54,0,0,0-3,1.66,9.94,9.94,0,0,0-1.16,1.18l-.53.61c-.16.21-.31.45-.46.68a21.66,21.66,0,0,0-1.62,2.8,32.18,32.18,0,0,0-1.2,3,69.77,69.77,0,0,0-2.81,13c-.17,1.1-.25,2.25-.37,3.36s-.3,2.22-.35,3.36-.15,2.27-.26,3.4c0,.56-.11,1.13-.14,1.68l0,1.57a44.79,44.79,0,0,0,.24,6.24c.07,1,.28,2.06.4,3.1s.41,2,.63,3.07c1.92,8.17,5.79,16.05,10.72,23.55A194.16,194.16,0,0,0,462.9,759.33Z" transform="translate(-22.72 -279.04)"/><path d="M560,832.47a95.3,95.3,0,0,1-1.32,15.33c-.78,4.91-1.74,9.69-2.84,14.43s-2.25,9.4-3.55,14.12-2.55,9.41-4.33,14.55a38,38,0,0,1-3.49-15.44A64,64,0,0,1,546.1,860a70.61,70.61,0,0,1,5.11-14.55,59.52,59.52,0,0,1,3.82-6.77A38.18,38.18,0,0,1,560,832.47Z" transform="translate(-22.72 -279.04)"/><path d="M623.06,719c-2.28-16.57-3.46-33.14-4.31-49.71s-1.18-33.14-1.19-49.71.37-33.13,1.17-49.7,2-33.14,4.33-49.71c2.29,16.57,3.48,33.14,4.32,49.71s1.19,33.13,1.18,49.7-.38,33.14-1.19,49.71S625.34,702.4,623.06,719Z" transform="translate(-22.72 -279.04)"/><path d="M490.64,809.77A85.73,85.73,0,0,1,507.4,821a101.91,101.91,0,0,1,7.4,7c1.17,1.25,2.33,2.5,3.4,3.84.53.67,1.09,1.32,1.61,2l1.55,2.06a65.27,65.27,0,0,1,5.49,8.81c.85,1.52,1.53,3.13,2.25,4.73.34.8.63,1.63.95,2.45s.63,1.64.86,2.49l.76,2.53c.24.86.4,1.73.6,2.59.43,1.71.62,3.48.89,5.23.15.88.14,1.77.22,2.65s.14,1.78.12,2.66l0,2.67c0,.44,0,.89,0,1.33l-.13,1.33L533,878c-.12.88-.31,1.75-.46,2.62s-.3,1.75-.52,2.6l-.7,2.56a51.48,51.48,0,0,1-1.68,5l-.45,1.23c-.16.41-.35.78-.52,1.18l-1.05,2.32-2.11,4.65c-.74,1.53-1.62,3-2.42,4.52s-1.57,3-2.57,4.44l-2.85,4.29c-1,1.41-2.11,2.73-3.16,4.09-.55.66-1,1.37-1.64,2s-1.21,1.25-1.81,1.87l-1.82,1.85-2,1.68c-.67.55-1.31,1.13-2,1.66L503.09,928a38.92,38.92,0,0,1-4.57,2.51c-.78.36-1.63.63-2.43.94-.41.14-.8.32-1.23.43l-1.27.29a18.69,18.69,0,0,1-10.12-.08,15.51,15.51,0,0,0,4.91-.32c.4-.09.8-.14,1.19-.25l1.16-.35c.39-.13.78-.21,1.15-.37l1.12-.47,1.1-.47c.36-.17.71-.38,1.06-.57.7-.4,1.42-.74,2.09-1.18a34.38,34.38,0,0,0,3.81-2.89l1.81-1.55c.57-.55,1.1-1.16,1.66-1.73l1.64-1.73,1.48-1.9c.49-.63,1-1.27,1.48-1.89s.91-1.32,1.37-2c.87-1.35,1.82-2.64,2.62-4,1.55-2.84,3.19-5.6,4.51-8.58.68-1.47,1.41-2.91,2.07-4.39l1.83-4.52c.58-1.51,1.33-3,1.76-4.5a42.3,42.3,0,0,0,1.39-4.49l.6-2.27c.19-.76.28-1.53.43-2.29s.3-1.53.39-2.3l.22-2.32a50.93,50.93,0,0,0-1.75-18.48,69.37,69.37,0,0,0-7.73-17.34A103.55,103.55,0,0,0,505,823.45,133.3,133.3,0,0,0,490.64,809.77Z" transform="translate(-22.72 -279.04)"/><path d="M489.38,430c-3.57-2.7-7-5.26-10.43-7.53A46.81,46.81,0,0,0,468.33,417a24.66,24.66,0,0,0-5.51-1.19,23.66,23.66,0,0,0-2.8-.11,25.49,25.49,0,0,0-8.55,2c-1,.35-1.91.86-2.9,1.29-.51.21-1,.5-1.45.76s-1,.51-1.5.75a21.14,21.14,0,0,1,4.26-5.29,19.49,19.49,0,0,1,6-3.72,20.77,20.77,0,0,1,14.35-.18,30.6,30.6,0,0,1,11.7,7.48A32.69,32.69,0,0,1,489.38,430Z" transform="translate(-22.72 -279.04)"/><path d="M414,757.64a81.55,81.55,0,0,1,9.17,3.55c3,1.31,5.92,2.82,8.82,4.37A147.53,147.53,0,0,1,463.78,789c1.18,1.17,2.34,2.36,3.51,3.55s2.25,2.44,3.38,3.67,2.16,2.53,3.23,3.8S476,802.61,477,804s2,2.66,3,4l2.81,4.16c.9,1.41,1.73,2.86,2.6,4.3s1.67,2.9,2.43,4.39c1.6,2.94,2.95,6,4.29,9.08,1.19,3.14,2.46,6.24,3.34,9.48a88.56,88.56,0,0,1,3.07,39.3c-2.22-12.89-5.36-25.16-10.46-36.61-.61-1.44-1.19-2.88-1.92-4.27l-2-4.21c-1.53-2.72-2.9-5.51-4.57-8.14A151.57,151.57,0,0,0,469.07,810c-.91-1.26-1.89-2.48-2.88-3.69s-1.94-2.45-3-3.63-2-2.4-3-3.57-2.12-2.31-3.15-3.5q-6.4-6.92-13.37-13.39A347.7,347.7,0,0,0,414,757.64Z" transform="translate(-22.72 -279.04)"/><path d="M702,801.93a94.71,94.71,0,0,1-10.13-10,109.1,109.1,0,0,1-8.76-11.3A75.85,75.85,0,0,1,676,767.74a44.37,44.37,0,0,1-2.42-7.54,23.77,23.77,0,0,1-.3-9.15l.72-4.18,4.75-.68c1.69-.25,3.61-.54,5.42-.85s3.68-.63,5.53-1c3.68-.67,7.37-1.36,11-2.13,7.34-1.5,14.62-3.23,21.87-5.12,3.6-1,7.21-2,10.79-3.09,1.78-.57,3.57-1.12,5.34-1.73s3.54-1.23,5.33-1.85c3.53-1.29,7-2.69,10.54-4.21s6.92-3.24,10.45-5a60.06,60.06,0,0,1-8.08,8.73,88.35,88.35,0,0,1-9.51,7.25,114.69,114.69,0,0,1-10.37,6c-3.56,1.77-7.2,3.4-10.9,4.85a154.54,154.54,0,0,1-22.73,6.91c-3.87.85-7.75,1.6-11.66,2.19-2,.3-3.92.56-5.9.79s-3.9.42-6,.55l5.48-4.87a13.51,13.51,0,0,0-.21,4.69,35.11,35.11,0,0,0,1.15,5.89c.53,2,1.19,4.1,1.94,6.18s1.56,4.15,2.4,6.24c1.72,4.17,3.57,8.37,5.51,12.57Z" transform="translate(-22.72 -279.04)"/><path d="M789.62,776.49a27.11,27.11,0,0,1,6.65-7.87,46.63,46.63,0,0,1,8.73-5.73,69,69,0,0,1,19.93-6.35A117,117,0,0,1,845.82,755a161.46,161.46,0,0,1,20.86,1.54,286.2,286.2,0,0,1,40.75,8.8c13.33,3.9,26.42,8.51,39.3,13.6l-8.51,6.3c-.15-1.32-.25-2.39-.34-3.57s-.17-2.29-.24-3.43q-.18-3.44-.23-6.85-.1-6.83.32-13.66a153.54,153.54,0,0,1,4.1-27.23,115.32,115.32,0,0,1,9.85-26.3,86.69,86.69,0,0,1,17.46-22.92,80.92,80.92,0,0,1,24.62-15.57,101.84,101.84,0,0,1,27.91-6.64,150.54,150.54,0,0,1,28,.14,209,209,0,0,1,27.13,4.57l-8.15,16-.51-.44-.38-.35-.69-.65c-.45-.44-.89-.86-1.29-1.28-.84-.85-1.62-1.71-2.39-2.57-1.52-1.72-3-3.48-4.31-5.28a102.61,102.61,0,0,1-7.35-11.19,116.31,116.31,0,0,1-10.34-24.33,126.19,126.19,0,0,1-3.12-12.76c-.86-4.29-1.44-8.61-1.89-12.94a163.78,163.78,0,0,1-.43-25.91,190.79,190.79,0,0,1,3.41-25.42,229,229,0,0,1,6.39-24.61c2.56-8,5.48-15.94,8.69-23.7S1061.23,493,1065,485.6a447.3,447.3,0,0,1,25.19-43c9.14-13.8,18.92-27.12,29.14-40s20.91-25.41,31.91-37.59,22.33-24,33.93-35.6l10.32,14.09c-11.31,5.52-22.53,10.76-33.88,15.93s-22.75,10.12-34.2,15-23,9.58-34.58,14.13-23.24,9-35,13.12c-23.5,8.32-47.33,15.88-71.73,21.59A314.39,314.39,0,0,1,949,429.71a157.86,157.86,0,0,1-19,.91,78.32,78.32,0,0,1-19.1-2.47l3.28-2.88c.1,1.67.07,3.12,0,4.66s-.17,3-.33,4.52a70.07,70.07,0,0,1-1.51,8.88A60.66,60.66,0,0,1,905.81,460a51.66,51.66,0,0,1-11.44,13.59,52.19,52.19,0,0,1-7.23,5.07,59,59,0,0,1-7.9,3.78,55.87,55.87,0,0,0,14.12-10,49.42,49.42,0,0,0,9.89-13.85,59.14,59.14,0,0,0,5.07-16.13,65.84,65.84,0,0,0,.84-8.4c.05-1.41.06-2.81,0-4.21s-.14-2.84-.3-4.06l-.47-3.64,3.75.76a76.91,76.91,0,0,0,17.79,1.1,151,151,0,0,0,18-1.9,307.39,307.39,0,0,0,35.68-8.32c11.77-3.41,23.45-7.23,35-11.37s23.09-8.5,34.51-13.1S1076,380,1087.3,375.11s22.54-10,33.75-15.12,22.35-10.43,33.43-15.83,22.18-10.85,33-16.45l46.89-24.27-36.58,38.35c-11.12,11.66-22,23.48-32.63,35.57s-20.81,24.46-30.63,37.12-19.14,25.64-27.81,39a428.8,428.8,0,0,0-23.93,41.13c-3.58,7-6.83,14.22-9.93,21.45s-5.76,14.58-8.15,22a195.46,195.46,0,0,0-9.12,45.32,145.26,145.26,0,0,0,.14,22.76c.36,3.75.82,7.49,1.52,11.18a105.42,105.42,0,0,0,2.56,10.91,101.12,101.12,0,0,0,8.37,20.56,88.73,88.73,0,0,0,5.86,9.25c1.07,1.45,2.18,2.87,3.33,4.21.57.66,1.15,1.32,1.73,1.92.28.32.57.6.85.88l.65.63,25,24.25-33.12-8.23c-16.36-4.07-33.09-6.48-49.28-5.32a85.53,85.53,0,0,0-23.3,4.93,64.56,64.56,0,0,0-20,11.84c-11.8,10.28-19.68,25.06-24.19,41a144.92,144.92,0,0,0-4.64,24.65q-.66,6.3-.83,12.64-.09,3.17,0,6.32c0,1,0,2.1.08,3.14s.1,2.13.16,3l.78,10.51-9.28-4.2c-12.34-5.59-24.81-10.89-37.56-15.41a276.66,276.66,0,0,0-38.86-11.22c-13.18-2.6-26.67-4.31-40.06-3.14a79.48,79.48,0,0,0-9.94,1.5,60.25,60.25,0,0,0-9.64,2.86,45.56,45.56,0,0,0-8.93,4.69A27.69,27.69,0,0,0,789.62,776.49Z" transform="translate(-22.72 -279.04)"/><path d="M741.18,861.06A114.09,114.09,0,0,0,746,884.82a80.81,80.81,0,0,0,10.19,21.48,54.9,54.9,0,0,0,7.54,8.86,45.14,45.14,0,0,0,9.26,6.65,47.48,47.48,0,0,0,21.81,5.42,71.33,71.33,0,0,0,11.46-.81,98.08,98.08,0,0,0,11.36-2.49,149.48,149.48,0,0,0,22-8.36,233,233,0,0,0,21-11.24q5.11-3.09,10.15-6.35l5.14-3.3c1.75-1.11,3.48-2.26,5.27-3.32a236,236,0,0,1,21.91-12.07,179.73,179.73,0,0,1,23.47-9.45c2-.61,4.06-1.27,6.13-1.79l3.1-.81,3.13-.71c2.08-.51,4.22-.83,6.33-1.24s4.27-.69,6.43-.87a93,93,0,0,1,26.21.67,80.25,80.25,0,0,1,25.11,8.69A86.8,86.8,0,0,1,1023.9,890a104.92,104.92,0,0,1,15.38,21,122.06,122.06,0,0,1,5.73,11.58q1.27,3,2.39,6c.37,1,.73,2,1.07,3.09l.5,1.59c.17.57.3,1,.49,1.74l8.8,33.41-20.59-27.7c-.58-.79-1.37-1.78-2.1-2.67s-1.5-1.82-2.28-2.72c-1.55-1.8-3.17-3.57-4.81-5.29a139.25,139.25,0,0,0-10.38-9.82,93.33,93.33,0,0,0-23.49-15.18c-8.38-3.67-17.4-5.46-26.16-4.27-1.08.19-2.18.33-3.26.55l-3.22.83c-1.06.34-2.1.74-3.16,1.1l-.79.28-.81.37-1.63.74-3.26,1.48-1.63.74c-.54.25-1,.57-1.57.85L946,909.43a33.34,33.34,0,0,0-3.08,1.78A82.19,82.19,0,0,0,921.69,930c-.74.94-1.52,1.85-2.22,2.82l-2.08,3-1,1.48-1,1.54-2,3.08q-1.86,3.15-3.65,6.37c-1.16,2.18-2.34,4.34-3.46,6.56-2.28,4.41-4.53,8.9-6.91,13.33s-5.07,8.8-7.92,12.9-5.71,8.26-8.91,12.15c-1.59,2-3.24,3.85-5,5.64l-1.36,1.31c-.48.41-.94.84-1.44,1.22l-.75.58-.79.52a4.69,4.69,0,0,1-1.73.72,4.53,4.53,0,0,0,1.6-.9l.71-.6.67-.64c.44-.43.84-.91,1.27-1.36l1.19-1.41c1.54-1.94,3-4,4.33-6,2.71-4.16,5.22-8.44,7.63-12.78s4.56-8.74,6.59-13.25,3.9-9.1,5.87-13.73c1-2.3,2-4.61,3-6.91s2.16-4.6,3.3-6.88l1.8-3.39.91-1.69,1-1.65,2-3.3c.7-1.09,1.48-2.13,2.21-3.2s1.46-2.16,2.29-3.16l2.48-3,1.24-1.52c.43-.49.9-1,1.35-1.42l2.73-2.83a36.39,36.39,0,0,1,2.87-2.68l3-2.59.74-.65.79-.58,1.58-1.17,3.16-2.34c1-.82,2.19-1.42,3.28-2.13l3.34-2.06c.56-.33,1.11-.7,1.68-1l1.74-.89,3.48-1.78,1.74-.89.87-.44.95-.39c1.28-.52,2.54-1.07,3.84-1.55l4-1.21c1.34-.35,2.71-.6,4.07-.89a54.51,54.51,0,0,1,16.57-.27,67.62,67.62,0,0,1,15.77,4.17,105.67,105.67,0,0,1,27.11,16.34A151.7,151.7,0,0,1,1037.8,921c1.84,1.84,3.63,3.72,5.37,5.66.88,1,1.74,1.95,2.59,2.95s1.66,2,2.59,3.16l-11.79,5.71-.37-1.19-.44-1.31c-.3-.88-.62-1.77-1-2.66-.67-1.77-1.4-3.54-2.18-5.29a105.37,105.37,0,0,0-5.21-10.21,96.52,96.52,0,0,0-6.27-9.52,89.16,89.16,0,0,0-7.27-8.65,69.26,69.26,0,0,0-38.34-20.81c-14.64-2.58-30.15-.64-45,3.86A167.21,167.21,0,0,0,908.59,891c-7.18,3.27-14.22,6.94-21.12,10.92-1.74,1-3.43,2-5.14,3l-5.23,3.15c-3.52,2.16-7.14,4.19-10.76,6.21a226,226,0,0,1-22.47,10.9,150.54,150.54,0,0,1-24,7.81,104.13,104.13,0,0,1-12.61,2,78.08,78.08,0,0,1-12.89.15,52.4,52.4,0,0,1-24.67-7.82,50.86,50.86,0,0,1-9.94-8.29,60.38,60.38,0,0,1-7.53-10.28,81.92,81.92,0,0,1-8.71-23.31,100.89,100.89,0,0,1-1.9-12.17A91.17,91.17,0,0,1,741.18,861.06Z" transform="translate(-22.72 -279.04)"/><path class="cls-1" d="M688.73,753.89a28.74,28.74,0,1,0,38.75-14.81" transform="translate(-22.72 -279.04)"/><path d="M691.36,907.94a68.84,68.84,0,0,0,.65,13.38,80.48,80.48,0,0,0,7.9,25.4l1.61,2.92c.27.48.52,1,.81,1.45l.89,1.4,1.8,2.8,2,2.67,1,1.34c.34.44.72.84,1.07,1.27l2.16,2.52c.7.86,1.54,1.59,2.3,2.39l2.34,2.34c1.69,1.43,3.31,2.93,5,4.29l2.67,2c.9.64,1.75,1.35,2.71,1.9a97.62,97.62,0,0,0,23.84,11.42l1.56.55c.52.17,1.06.31,1.59.46l3.2.9,3.19.9c1.07.28,2.16.48,3.24.72,2.16.45,4.32,1,6.49,1.38l6.57,1c1.1.15,2.18.37,3.29.47l3.31.33,6.61.64,6.65.31c2.22.08,4.43.26,6.66.2l6.66,0h3.33l3.33-.15,13.39-.65a153.74,153.74,0,0,1,27.28,1,119.1,119.1,0,0,1,26.65,6.68,105.59,105.59,0,0,1,12.56,5.78c2.06,1.05,4,2.31,6,3.48s3.88,2.51,5.71,3.92A101.52,101.52,0,0,1,918,1024.2a108.85,108.85,0,0,1,9.4,10.16,121.43,121.43,0,0,1,8.14,11.16,136.16,136.16,0,0,1,6.91,11.92q3.18,6.12,5.77,12.48c1.74,4.24,3.33,8.54,4.72,12.89a217.06,217.06,0,0,1,6.75,26.5,257.11,257.11,0,0,1,3.67,27q.55,6.81.78,13.63.11,3.42.11,6.85c0,2.31,0,4.53-.13,7l-1.28,28.11-7.31-27.33c-.22-.84-.52-1.85-.81-2.79s-.61-1.92-.94-2.88q-1-2.88-2.1-5.73c-1.49-3.79-3.09-7.55-4.88-11.22a157.31,157.31,0,0,0-12.22-21.14,128.64,128.64,0,0,0-33.94-34.26,112.62,112.62,0,0,0-44.55-17.45l-6-.9-6-.51c-1-.07-2-.19-3-.22l-3,0-6.07-.1-6.08.3-3,.14c-1,0-2.09.15-3.13.22-4.21.31-8.42.63-12.63.87q-25.27,1.61-50.69,1.26c-8.46-.15-16.93-.42-25.4-1s-17-1.31-25.4-2.47-16.89-2.59-25.27-4.54a161.88,161.88,0,0,1-24.82-7.76,105.1,105.1,0,0,1-12-5.78,71.74,71.74,0,0,1-11.13-7.86,47.47,47.47,0,0,1-9.28-10.62,41.12,41.12,0,0,1-5.46-13.45h10.78a40.81,40.81,0,0,1-5.46,13.45,47.52,47.52,0,0,1-9.28,10.63,71,71,0,0,1-11.13,7.85,103.52,103.52,0,0,1-12,5.79,161.84,161.84,0,0,1-24.82,7.75c-8.38,2-16.82,3.41-25.27,4.55s-16.93,1.89-25.4,2.46-16.94.86-25.4,1q-25.41.36-50.69-1.25c-4.22-.23-8.42-.56-12.63-.87-1-.07-2.12-.17-3.13-.21l-3-.15-6.08-.29-6.08.09-3,0c-1,0-2,.16-3,.23l-6,.5-6,.9a112.63,112.63,0,0,0-44.54,17.45,128.75,128.75,0,0,0-33.94,34.25A158,158,0,0,0,299.32,1142c-1.79,3.67-3.39,7.43-4.88,11.22-.74,1.89-1.44,3.81-2.09,5.72-.33,1-.64,1.92-.94,2.88s-.59,2-.82,2.8L283.25,1192,282,1163.78c-.11-2.42-.13-4.64-.13-7s0-4.57.11-6.85q.23-6.82.79-13.63a256.4,256.4,0,0,1,3.67-27,215.36,215.36,0,0,1,6.74-26.51c1.4-4.35,3-8.64,4.72-12.88s3.65-8.41,5.77-12.48a132.54,132.54,0,0,1,6.92-11.93,119.59,119.59,0,0,1,8.14-11.16,107.51,107.51,0,0,1,9.4-10.16,100.31,100.31,0,0,1,10.63-8.89c1.83-1.41,3.8-2.63,5.71-3.92s3.93-2.43,6-3.48a103.2,103.2,0,0,1,12.56-5.78,119.23,119.23,0,0,1,26.65-6.68,153.86,153.86,0,0,1,27.29-1l13.39.65,3.33.16H437l6.66,0c2.23.06,4.44-.12,6.65-.2l6.65-.31,6.62-.64,3.31-.33c1.11-.1,2.19-.32,3.29-.47l6.57-1c2.17-.42,4.32-.92,6.49-1.38,1.08-.25,2.17-.44,3.24-.72l3.19-.9,3.19-.9c.54-.15,1.07-.29,1.6-.46l1.56-.55A98.31,98.31,0,0,0,519.84,976c1-.56,1.81-1.26,2.71-1.91l2.66-2c1.74-1.36,3.36-2.87,5-4.29l2.35-2.35c.76-.8,1.6-1.53,2.29-2.39l2.16-2.52c.36-.42.73-.83,1.07-1.27l1-1.33,2-2.67,1.79-2.8.9-1.4c.29-.47.54-1,.81-1.45l1.6-2.92a86.53,86.53,0,0,0,5-12.35,85.65,85.65,0,0,0,2.89-13,68.85,68.85,0,0,0,.66-13.38,68.52,68.52,0,0,1-.23,13.43,86.78,86.78,0,0,1-2.5,13.24,87.66,87.66,0,0,1-4.67,12.68l-1.54,3c-.26.5-.5,1-.78,1.5l-.86,1.46-1.75,2.91L540.5,959l-1,1.4c-.33.46-.71.88-1.06,1.33l-2.14,2.64c-.69.9-1.53,1.67-2.29,2.51l-2.34,2.47c-1.7,1.51-3.32,3.1-5.07,4.54L523.94,976a31.64,31.64,0,0,1-2.73,2A100.55,100.55,0,0,1,497,990.35l-1.59.61c-.54.19-1.08.34-1.62.52l-3.25,1-3.25,1c-1.09.32-2.2.55-3.29.82-2.21.52-4.41,1.09-6.62,1.56l-6.69,1.19c-1.11.18-2.22.43-3.35.56L464,998l-6.74.81-6.76.46c-2.26.13-4.51.36-6.77.35l-6.78.13-3.38.07-3.39-.09-13.46-.36a150,150,0,0,0-26.31,1.53,113.88,113.88,0,0,0-25.25,6.78,99.65,99.65,0,0,0-11.73,5.65c-1.92,1-3.72,2.24-5.57,3.37s-3.6,2.41-5.3,3.76a94.63,94.63,0,0,0-9.82,8.51,103.66,103.66,0,0,0-8.67,9.7,113.55,113.55,0,0,0-7.5,10.67,128.39,128.39,0,0,0-6.36,11.42c-7.75,15.66-12.8,32.67-15.87,50a251.11,251.11,0,0,0-3.23,26.23c-.31,4.39-.51,8.8-.59,13.2,0,2.2-.05,4.39,0,6.59s.08,4.42.2,6.47l-8.62-.78c.3-1.19.59-2.19.9-3.26s.64-2.08,1-3.11q1-3.09,2.15-6.12c1.53-4,3.16-8,5-11.91a159.79,159.79,0,0,1,12.68-22.52,137.88,137.88,0,0,1,36.23-37,122.56,122.56,0,0,1,48.29-19.36c2.15-.34,4.3-.7,6.45-1l6.5-.59c1.08-.09,2.16-.22,3.25-.26l3.25-.09,6.51-.14,6.49.26,3.24.14c1.09,0,2.09.13,3.14.19,4.16.27,8.32.56,12.48.76,8.32.47,16.65.77,25,1s16.64.25,24.94.07,16.61-.45,24.87-1,16.51-1.32,24.68-2.45,16.27-2.54,24.22-4.42a150.76,150.76,0,0,0,23.14-7.28,93,93,0,0,0,10.67-5.18,60.11,60.11,0,0,0,9.38-6.64,36.35,36.35,0,0,0,7.2-8.25,30.48,30.48,0,0,0,4-9.73l5.44-25.31,5.34,25.31a30.36,30.36,0,0,0,3.95,9.73,36.64,36.64,0,0,0,7.21,8.25,60.11,60.11,0,0,0,9.38,6.64,94,94,0,0,0,10.67,5.19,151.86,151.86,0,0,0,23.14,7.28c8,1.87,16.06,3.29,24.22,4.41s16.42,1.88,24.68,2.46,16.56.88,24.87,1,16.62.07,24.94-.08,16.65-.51,25-1c4.16-.2,8.32-.49,12.48-.77,1-.06,2-.15,3.14-.19l3.24-.13,6.49-.26,6.51.14,3.25.08c1.08,0,2.17.18,3.25.27l6.5.59c2.15.31,4.3.68,6.45,1a122.51,122.51,0,0,1,48.29,19.35,138.1,138.1,0,0,1,36.22,37A162.49,162.49,0,0,1,955,1138.09c1.84,3.89,3.47,7.88,5,11.91.77,2,1.48,4,2.15,6.11.34,1,.67,2.07,1,3.12s.6,2.06.9,3.25l-8.58.78c.11-2,.17-4.3.19-6.47s0-4.39,0-6.59c-.09-4.4-.29-8.81-.6-13.2a248.14,248.14,0,0,0-3.23-26.23c-3.07-17.33-8.12-34.33-15.87-50a125.92,125.92,0,0,0-6.36-11.42,113.55,113.55,0,0,0-7.5-10.67,102.41,102.41,0,0,0-8.67-9.7,94.63,94.63,0,0,0-9.82-8.51c-1.7-1.35-3.53-2.52-5.3-3.77s-3.65-2.34-5.57-3.36a99,99,0,0,0-11.74-5.65,113.88,113.88,0,0,0-25.25-6.78,149.13,149.13,0,0,0-26.32-1.53l-13.45.36-3.39.08-3.39-.06-6.77-.13c-2.26,0-4.51-.22-6.77-.35l-6.76-.46L782.1,998l-3.37-.4c-1.12-.13-2.23-.38-3.34-.56l-6.69-1.19c-2.21-.47-4.41-1-6.61-1.55-1.1-.28-2.21-.51-3.3-.83l-3.25-1-3.25-1c-.54-.17-1.08-.33-1.62-.52l-1.58-.61A100.58,100.58,0,0,1,724.91,978c-1-.6-1.82-1.35-2.73-2l-2.68-2.1c-1.75-1.44-3.38-3-5.07-4.54l-2.35-2.47c-.75-.84-1.59-1.61-2.28-2.51l-2.15-2.64c-.35-.44-.72-.87-1-1.33l-1-1.39-1.93-2.79L702,953.27l-.87-1.46c-.28-.49-.52-1-.78-1.51l-1.54-3a81.1,81.1,0,0,1-7.17-25.91A68.53,68.53,0,0,1,691.36,907.94Z" transform="translate(-22.72 -279.04)"/><path d="M817.48,928.78A124.79,124.79,0,0,1,820,910.47a154.08,154.08,0,0,1,4.89-17.91,132.65,132.65,0,0,1,16.66-33.49c1.76-2.62,3.73-5.08,5.7-7.56s4.13-4.8,6.41-7l1.67-1.7c.56-.56,1.17-1.07,1.76-1.61,1.19-1,2.34-2.15,3.58-3.16l3.74-3c.62-.51,1.27-1,1.93-1.41l2-1.37,2-1.35c.66-.45,1.36-.83,2-1.25l4.14-2.44,4.28-2.16c.72-.35,1.42-.75,2.15-1.06l2.22-.93a110,110,0,0,1,18.22-5.88l.47,8.78c-1.62-.15-3.53-.24-5.34-.28s-3.66-.05-5.5,0c-3.68.07-7.37.27-11.05.58s-7.34.78-11,1.35-7.27,1.26-10.86,2.11a131,131,0,0,0-40.62,16.71A115,115,0,0,0,802.07,860l-4,3.92c-1.38,1.35-2.71,2.74-4.13,4.05s-2.79,2.67-4.28,3.92l-2.18,1.91-2.25,1.85c-1.48,1.25-3.09,2.38-4.65,3.53s-3.24,2.18-5,3.14a37.94,37.94,0,0,1-11,4.5,19.06,19.06,0,0,1-6.08.23,12.42,12.42,0,0,1-5.64-2.23,15.78,15.78,0,0,1-5.86-9.85,15.47,15.47,0,0,0,6.66,8.59,10.61,10.61,0,0,0,5,1.39,17.25,17.25,0,0,0,5.22-.78,36.09,36.09,0,0,0,9.61-5c1.51-1,2.94-2.22,4.38-3.37s2.81-2.41,4.15-3.71l2-1.91,2-2c1.33-1.3,2.57-2.71,3.85-4.07s2.48-2.81,3.72-4.21,2.58-2.88,3.88-4.32A112.3,112.3,0,0,1,815.3,840.2a118.81,118.81,0,0,1,20.51-11.47A135.58,135.58,0,0,1,858,821.18c3.79-.95,7.63-1.73,11.48-2.39s7.73-1.12,11.62-1.48,7.79-.56,11.71-.6q2.94,0,5.89,0c2,.06,3.87.15,6,.36l26.4,2.53-25.93,6.24a104.22,104.22,0,0,0-16.8,5.16l-2,.81c-.68.26-1.32.61-2,.91l-4,1.88-3.84,2.14c-.63.37-1.29.69-1.91,1.09l-1.84,1.2L871,840.27a21,21,0,0,0-1.83,1.24l-3.55,2.62c-1.17.88-2.27,1.87-3.41,2.8-.56.48-1.14.94-1.69,1.43l-1.62,1.51c-2.21,2-4.23,4.14-6.29,6.28s-3.93,4.45-5.73,6.83a138,138,0,0,0-10.08,14.86A170.81,170.81,0,0,0,828.62,894,176.32,176.32,0,0,0,817.48,928.78Z" transform="translate(-22.72 -279.04)"/><path d="M1010.77,564.55q-20.17-25.23-39.27-51.33-9.56-13.05-18.59-26.53c-3-4.52-5.91-9.08-8.67-13.81-.69-1.18-1.38-2.36-2-3.59l-1-1.82-.93-1.88c-.64-1.23-1.18-2.6-1.75-3.92l-.75-2.16c-.22-.78-.38-1.68-.55-2.52l-.64-3.24,3.66-.35c6.91-.67,13.92-1.53,20.85-2.5s13.86-2.11,20.76-3.37c13.77-2.58,27.43-5.58,41-8.81,1.69-.4,3.39-.78,5.08-1.21l5.06-1.3c1.69-.41,3.36-.88,5-1.32s3.36-.91,5-1.41c3.35-1,6.64-2,10-3.05s6.57-2.2,9.78-3.48l2.44-.9c.81-.31,1.59-.66,2.39-1,1.59-.69,3.23-1.28,4.77-2.05s3.14-1.44,4.68-2.2l4.59-2.41A68.42,68.42,0,0,0,1098.21,406l.72.53c-3.7,6.19-9.07,11.29-14.82,15.66a119.63,119.63,0,0,1-18.57,11.1,182,182,0,0,1-19.9,8.23c-1.69.61-3.38,1.19-5.09,1.73s-3.4,1.13-5.11,1.65c-3.42,1-6.86,2-10.31,2.9a342.25,342.25,0,0,1-42,7.83c-7,.94-14.09,1.79-21.15,2.51s-14.1,1.38-21.25,1.83l3-3.59c.11.48.15.91.27,1.43l.52,1.67c.46,1.16.87,2.32,1.43,3.5l.8,1.76.88,1.76c.57,1.17,1.2,2.34,1.82,3.5,2.5,4.67,5.2,9.28,8,13.85,5.56,9.15,11.44,18.14,17.35,27.11s12,17.84,18.12,26.68,12.31,17.66,18.56,26.41Z" transform="translate(-22.72 -279.04)"/><path d="M1011.13,645c-12.59-14.32-24.24-29.32-35.54-44.58s-22.1-30.88-32.41-46.85c-2.56-4-5.1-8-7.61-12.07s-5-8.13-7.35-12.25-4.76-8.29-7-12.53-4.41-8.55-6.37-13.05l-1.4-3.46-.62-1.85-.3-.93a6.14,6.14,0,0,1-.27-1l-.46-2.14c-.07-.54-.14-1-.22-1.52s-.2-.89-.24-1.05-.08-.07.42.4a13.62,13.62,0,0,0,.57.33,2.89,2.89,0,0,0,.91.22,1.87,1.87,0,0,0,.53,0,3.13,3.13,0,0,0,.4-.08,2.34,2.34,0,0,0,.58-.26,1.36,1.36,0,0,0,.28-.21l.08-.09c0-.08,0,0,0,0l-.12.14-.15.23a11.3,11.3,0,0,0-.67,1.27c-.44.94-.84,2-1.24,3.06-.79,2.14-1.49,4.37-2.17,6.61-2.72,9-5.08,18.19-7.65,27.37.08-2.39.26-4.76.41-7.14s.4-4.75.63-7.12c.45-4.75,1.06-9.48,1.82-14.23.4-2.37.85-4.74,1.41-7.15a37.79,37.79,0,0,1,1-3.67,17.43,17.43,0,0,1,.78-2l.27-.55.37-.6a6,6,0,0,1,.55-.71c.13-.14.26-.28.4-.41a5.07,5.07,0,0,1,.64-.47,3.68,3.68,0,0,1,1-.43,2.74,2.74,0,0,1,.61-.13,4.67,4.67,0,0,1,.75,0,4.16,4.16,0,0,1,1.9.64,3.18,3.18,0,0,1,.37.27,5.5,5.5,0,0,1,1.43,1.85,14.31,14.31,0,0,1,.87,2.31c.19.68.33,1.35.47,2l.43,1.29a12.65,12.65,0,0,0,.58,1.43l.64,1.47,1.51,3c4.36,8.07,9.36,16.07,14.38,24,2.52,4,5,8,7.6,11.92l7.65,11.9c10.24,15.88,20.47,31.8,30.49,47.87S1001.94,628.29,1011.13,645Z" transform="translate(-22.72 -279.04)"/><path d="M903.45,655.08a245.17,245.17,0,0,0,3.1,27.21c.74,4.5,1.58,9,2.58,13.4s2,8.84,3.27,13.19c2.46,8.72,6.08,17,9.12,25.35,1.6,4.18,3.3,8.31,5.08,12.45s3.8,8.19,5.78,12.43l-.55.43a60.2,60.2,0,0,1-9.52-10.39A86.83,86.83,0,0,1,915.1,737a80,80,0,0,1-4.94-13.16c-1.21-4.53-2.23-9.08-3.2-13.63s-1.75-9.13-2.41-13.71-1.11-9.19-1.47-13.8-.53-9.22-.61-13.83,0-9.21.28-13.81Z" transform="translate(-22.72 -279.04)"/><path d="M783.22,759.33a194.16,194.16,0,0,0,17.22-21.89c4.93-7.5,8.8-15.38,10.72-23.55.22-1,.44-2,.63-3.07s.33-2.06.4-3.1a43.3,43.3,0,0,0,.23-6.24l0-1.57c0-.55-.1-1.12-.14-1.68-.11-1.13-.18-2.26-.26-3.4s-.24-2.24-.35-3.36-.2-2.26-.37-3.36a69.77,69.77,0,0,0-2.81-13,29.76,29.76,0,0,0-1.21-3,20.5,20.5,0,0,0-1.61-2.8,8.19,8.19,0,0,0-.47-.68l-.52-.61a9.31,9.31,0,0,0-1.17-1.18,7.5,7.5,0,0,0-3-1.66,7.28,7.28,0,0,1,3.75.19,10.5,10.5,0,0,1,1.81.72l.88.45c.28.17.54.36.81.54a20.27,20.27,0,0,1,3,2.53,30.52,30.52,0,0,1,2.46,3,49.59,49.59,0,0,1,6.49,13.61c.69,2.37,1.37,4.76,1.86,7.17.24,1.2.49,2.4.7,3.6.11.61.23,1.2.33,1.82l.23,2a32.4,32.4,0,0,1,.25,3.93c.08,1.32,0,2.63-.07,4s-.28,2.61-.42,3.91-.45,2.58-.72,3.86a56.69,56.69,0,0,1-2.36,7.42l-.74,1.79-.83,1.74c-.53,1.17-1.15,2.29-1.78,3.4s-1.32,2.17-2,3.25-1.41,2.09-2.18,3.08a66.7,66.7,0,0,1-4.81,5.74A72.09,72.09,0,0,1,796,752.43,57.27,57.27,0,0,1,783.22,759.33Z" transform="translate(-22.72 -279.04)"/><path d="M686.12,832.47a38.18,38.18,0,0,1,5,6.2,59.52,59.52,0,0,1,3.82,6.77A70.61,70.61,0,0,1,700,860a63.49,63.49,0,0,1,1.62,15.47,37.87,37.87,0,0,1-3.48,15.44c-1.78-5.14-3-9.83-4.33-14.55s-2.5-9.38-3.55-14.12-2.06-9.52-2.84-14.43A95.3,95.3,0,0,1,686.12,832.47Z" transform="translate(-22.72 -279.04)"/><path d="M755.48,809.77a133.3,133.3,0,0,0-14.39,13.68,103.55,103.55,0,0,0-11.81,15.48,69.37,69.37,0,0,0-7.73,17.34,50.93,50.93,0,0,0-1.75,18.48l.22,2.32c.09.77.26,1.53.39,2.3s.24,1.53.43,2.29l.6,2.27a44.69,44.69,0,0,0,1.38,4.49c.44,1.49,1.19,3,1.76,4.5l1.84,4.52c.65,1.48,1.39,2.92,2.07,4.39,1.32,3,3,5.74,4.51,8.58.8,1.4,1.75,2.69,2.62,4,.46.66.86,1.38,1.37,2s1,1.26,1.48,1.89l1.48,1.9,1.64,1.73c.56.57,1.09,1.18,1.66,1.73l1.81,1.55a34.38,34.38,0,0,0,3.81,2.89c.67.44,1.39.78,2.09,1.18.35.19.7.4,1.06.57l1.1.47,1.11.47c.38.16.77.24,1.15.37l1.17.35c.39.11.79.16,1.19.25a15.51,15.51,0,0,0,4.91.32,18.69,18.69,0,0,1-10.12.08l-1.27-.29c-.43-.11-.82-.29-1.23-.43-.8-.31-1.65-.58-2.43-.94A38.14,38.14,0,0,1,743,928l-2.17-1.46c-.69-.53-1.33-1.11-2-1.66l-2-1.68L735,921.36c-.6-.62-1.22-1.23-1.81-1.87s-1.09-1.33-1.64-2c-1.05-1.36-2.19-2.68-3.16-4.09l-2.85-4.29c-1-1.42-1.72-3-2.57-4.44s-1.68-3-2.42-4.52l-2.12-4.65-1.05-2.32c-.17-.4-.35-.77-.51-1.18l-.45-1.23c-.59-1.66-1.26-3.28-1.69-5l-.69-2.56c-.22-.85-.34-1.73-.52-2.6s-.34-1.74-.46-2.62l-.27-2.64L712.7,874c0-.44,0-.89,0-1.33l0-2.67c0-.88.08-1.77.12-2.66s.07-1.77.22-2.65c.27-1.75.45-3.52.89-5.23.2-.86.36-1.73.6-2.59l.76-2.53c.23-.85.55-1.67.86-2.49s.61-1.65.95-2.45c.72-1.6,1.4-3.21,2.24-4.73a66.35,66.35,0,0,1,5.5-8.81l1.55-2.06c.52-.68,1.08-1.33,1.61-2,1.07-1.34,2.23-2.59,3.4-3.84a101.91,101.91,0,0,1,7.4-7A85.73,85.73,0,0,1,755.48,809.77Z" transform="translate(-22.72 -279.04)"/><path d="M649.53,1041.61a26.26,26.26,0,0,1,.33,5.82,27,27,0,0,1-.91,5.88,32.53,32.53,0,0,1-5.25,10.88,40.68,40.68,0,0,1-8.57,8.61,48.78,48.78,0,0,1-5.08,3.33c-.88.5-1.79,1-2.71,1.4-.46.22-.93.44-1.41.64s-.92.4-1.55.63l-1.31.48-1.33-.48c-.64-.23-1-.41-1.55-.62s-1-.43-1.41-.65c-.93-.44-1.83-.9-2.71-1.4a48.82,48.82,0,0,1-5.09-3.32,40.91,40.91,0,0,1-8.57-8.61,32.71,32.71,0,0,1-5.26-10.89,27.54,27.54,0,0,1-.9-5.88,26.87,26.87,0,0,1,.33-5.82,45.4,45.4,0,0,0,4.22,10.23,38.48,38.48,0,0,0,6.41,8.29,48.72,48.72,0,0,0,8.12,6.46c1.46.93,3,1.81,4.5,2.59.77.4,1.54.79,2.32,1.15.39.17.78.35,1.16.5s.82.33,1.07.42h-2.64c.25-.08.7-.26,1.07-.41l1.16-.51c.78-.35,1.55-.75,2.32-1.14,1.55-.78,3-1.67,4.51-2.6a48.56,48.56,0,0,0,8.12-6.45,38.68,38.68,0,0,0,6.4-8.29A45.2,45.2,0,0,0,649.53,1041.61Z" transform="translate(-22.72 -279.04)"/><path d="M756.74,430a32.8,32.8,0,0,1,7.44-11.17,30.75,30.75,0,0,1,11.7-7.48,20.8,20.8,0,0,1,14.36.18,19.49,19.49,0,0,1,6,3.72,21.14,21.14,0,0,1,4.26,5.29c-.52-.24-1-.51-1.5-.75s-.94-.55-1.45-.76c-1-.43-1.91-.94-2.9-1.29a25.36,25.36,0,0,0-5.73-1.68,24.84,24.84,0,0,0-2.82-.32,23.83,23.83,0,0,0-2.81.11,24.7,24.7,0,0,0-5.5,1.19,46.81,46.81,0,0,0-10.62,5.43C763.7,424.71,760.31,427.27,756.74,430Z" transform="translate(-22.72 -279.04)"/><path d="M835.1,757.64a347.7,347.7,0,0,0-29.62,24.59q-6.94,6.49-13.37,13.39c-1,1.19-2.09,2.34-3.15,3.5s-2,2.39-3.05,3.57-2,2.41-3,3.63-2,2.43-2.87,3.69a151.57,151.57,0,0,0-10.47,15.47c-1.67,2.63-3,5.42-4.57,8.14l-2,4.21c-.73,1.39-1.31,2.83-1.93,4.27-5.09,11.45-8.23,23.72-10.45,36.61a88.41,88.41,0,0,1,3.07-39.3c.88-3.24,2.15-6.34,3.33-9.48,1.35-3.06,2.7-6.14,4.3-9.08.76-1.49,1.55-3,2.43-4.39s1.7-2.89,2.6-4.3l2.81-4.16c.93-1.38,2-2.69,3-4s2-2.64,3.11-3.92,2.1-2.59,3.24-3.8,2.23-2.48,3.38-3.67,2.32-2.38,3.51-3.55a147.53,147.53,0,0,1,31.77-23.46c2.9-1.55,5.81-3.06,8.82-4.37A81.55,81.55,0,0,1,835.1,757.64Z" transform="translate(-22.72 -279.04)"/><path d="M642.82,784.55a28.31,28.31,0,0,1-6.73-4.21,44.78,44.78,0,0,1-5.43-5.32,44,44,0,0,1-4.45-6.17,27.83,27.83,0,0,1-3.15-7.28,28,28,0,0,1,6.73,4.21,45.25,45.25,0,0,1,9.87,11.49A28.84,28.84,0,0,1,642.82,784.55Z" transform="translate(-22.72 -279.04)"/><path d="M603.3,784.55a28.49,28.49,0,0,1,3.16-7.28,45.25,45.25,0,0,1,9.87-11.49,27.8,27.8,0,0,1,6.73-4.21,28.17,28.17,0,0,1-3.15,7.28A44.87,44.87,0,0,1,610,780.34,28,28,0,0,1,603.3,784.55Z" transform="translate(-22.72 -279.04)"/><path d="M489.22,986.65c3.39-1.55,6.71-3.29,10-5.09s6.45-3.69,9.53-5.72,6.1-4.11,9-6.34a94.79,94.79,0,0,0,8.32-7,59.27,59.27,0,0,0,7-7.94c2.11-2.79,4.24-5.43,6.39-8.08s4.17-5.4,6.18-8.32,3.8-6.07,5.93-9.51l1.09.15a29.49,29.49,0,0,1,.22,12.2,40.55,40.55,0,0,1-4.25,11.55,36.74,36.74,0,0,1-7.62,9.47,112.64,112.64,0,0,1-9.44,7.31,101.76,101.76,0,0,1-9.88,6.25q-5.11,2.77-10.39,5.06a119.61,119.61,0,0,1-21.75,7Z" transform="translate(-22.72 -279.04)"/><path d="M757,988.07a118.84,118.84,0,0,1-21.75-7Q730,978.78,724.86,976a102.85,102.85,0,0,1-9.87-6.25,109.47,109.47,0,0,1-9.44-7.31,36.57,36.57,0,0,1-7.63-9.47,41.16,41.16,0,0,1-4.25-11.55,29.49,29.49,0,0,1,.23-12.2l1.09-.15c2.12,3.44,4,6.56,5.92,9.51s4.06,5.65,6.18,8.32,4.29,5.3,6.39,8.08a59.35,59.35,0,0,0,7.06,7.94,94.64,94.64,0,0,0,8.31,7q4.32,3.35,9,6.34c3.09,2,6.28,3.91,9.53,5.72s6.57,3.54,10,5.09Z" transform="translate(-22.72 -279.04)"/><path d="M431.82,928.78A70.13,70.13,0,0,1,421.71,916a117.36,117.36,0,0,1-13.11-28.84,69.62,69.62,0,0,1-3-16,69.34,69.34,0,0,1,10.13,12.79,113.5,113.5,0,0,1,7.52,14,116.29,116.29,0,0,1,5.56,14.87A70.16,70.16,0,0,1,431.82,928.78Z" transform="translate(-22.72 -279.04)"/><path d="M812.59,932.78a70.7,70.7,0,0,1,3-16,116.34,116.34,0,0,1,5.57-14.87,113.5,113.5,0,0,1,7.52-14,69.37,69.37,0,0,1,10.12-12.79,69.61,69.61,0,0,1-3,16A117.81,117.81,0,0,1,822.7,920,70.91,70.91,0,0,1,812.59,932.78Z" transform="translate(-22.72 -279.04)"/><path d="M390.49,478.52a23.2,23.2,0,0,1-10.19,3.24,28.41,28.41,0,0,1-11.08-1.2,31,31,0,0,1-10.1-5.45,37.68,37.68,0,0,1-7.61-8.46,49,49,0,0,1-7.17-20.32,54.67,54.67,0,0,1,1.24-20.78c2.79,6.48,4.8,12.74,7.15,18.68a92.7,92.7,0,0,0,8,16.42,38.46,38.46,0,0,0,11.92,12,36.57,36.57,0,0,0,8.17,3.75A50,50,0,0,0,390.49,478.52Z" transform="translate(-22.72 -279.04)"/><path d="M869.65,482.93a49.93,49.93,0,0,0,9.66-2.11,37,37,0,0,0,8.17-3.75,38.53,38.53,0,0,0,11.93-12,93,93,0,0,0,8-16.42c2.35-5.94,4.37-12.2,7.15-18.67a54.22,54.22,0,0,1,1.24,20.77,49,49,0,0,1-7.17,20.33,37.39,37.39,0,0,1-7.61,8.45A30.63,30.63,0,0,1,890.92,485a28.09,28.09,0,0,1-11.09,1.2A23,23,0,0,1,869.65,482.93Z" transform="translate(-22.72 -279.04)"/><path d="M405.5,997.22a70,70,0,0,1-13.57-4.81c-2.18-1-4.33-2.18-6.43-3.43a65.27,65.27,0,0,1-6.08-4.21c-1.94-1.55-3.93-3.1-5.79-4.88a22.52,22.52,0,0,1-4.52-6.25,25.35,25.35,0,0,1-2.19-7.5,18,18,0,0,1,.72-7.75l.79-.09c1.44,2.18,2.6,4.14,3.83,6s2.48,3.58,3.74,5.28,2.5,3.39,3.68,5.22a37.86,37.86,0,0,0,4,5.23,58.41,58.41,0,0,0,4.9,4.65c1.7,1.51,3.49,2.94,5.35,4.3a97,97,0,0,0,11.8,7.5Z" transform="translate(-22.72 -279.04)"/><path d="M838.64,996.47a96.12,96.12,0,0,0,11.79-7.5q2.79-2,5.36-4.3a60,60,0,0,0,4.9-4.65,37,37,0,0,0,4-5.23c1.18-1.83,2.39-3.54,3.68-5.22s2.49-3.43,3.74-5.28,2.39-3.81,3.83-6l.8.09a18.3,18.3,0,0,1,.72,7.75,25.37,25.37,0,0,1-2.2,7.5,22.28,22.28,0,0,1-4.51,6.25c-1.86,1.78-3.85,3.33-5.8,4.88a66.48,66.48,0,0,1-6.07,4.21c-2.11,1.25-4.25,2.39-6.44,3.43a69.82,69.82,0,0,1-13.57,4.81Z" transform="translate(-22.72 -279.04)"/><path d="M293.84,1137.92a39.59,39.59,0,0,1-1-9.67,58.47,58.47,0,0,1,.88-9.77,67.73,67.73,0,0,1,6.39-18.68c.78-1.45,1.59-2.9,2.4-4.34s1.8-2.79,2.72-4.17l2.95-4,3.18-3.81a110.91,110.91,0,0,1,14.54-13.38,139.89,139.89,0,0,1,34.38-18.61,184,184,0,0,1,37.45-9.89c-12.12,4.4-24.1,8.88-35.63,14.21a180,180,0,0,0-32.58,19.08c-10,7.53-18.88,16.5-25.34,27.17-.75,1.36-1.58,2.69-2.28,4.08s-1.43,2.77-2,4.21a67.16,67.16,0,0,0-3.29,8.79,63.61,63.61,0,0,0-2.08,9.23A50.5,50.5,0,0,0,293.84,1137.92Z" transform="translate(-22.72 -279.04)"/><path d="M954.83,1137.92a49.69,49.69,0,0,0-.61-9.54,68.6,68.6,0,0,0-5.38-18c-.61-1.44-1.36-2.81-2-4.21s-1.53-2.72-2.28-4.08c-6.45-10.67-15.37-19.64-25.34-27.17a180,180,0,0,0-32.58-19.08c-11.53-5.33-23.5-9.81-35.63-14.21a184.12,184.12,0,0,1,37.46,9.89,139.82,139.82,0,0,1,34.37,18.61,111.64,111.64,0,0,1,14.55,13.38l3.18,3.81,3,4q1.38,2.07,2.71,4.17t2.4,4.34a67.75,67.75,0,0,1,6.4,18.68,59.54,59.54,0,0,1,.88,9.77A39.59,39.59,0,0,1,954.83,1137.92Z" transform="translate(-22.72 -279.04)"/></svg>