<svg id="Layer_1" data-name="Layer 1" xmlns="http://www.w3.org/2000/svg" viewBox="0 0 396 313.6"><title>MessageIcon</title><path d="M829.36,360H702v37a8,8,0,0,1-8,8H602a8,8,0,0,1-8-8V360H466.64c-10.38,0-14.45,13.46-5.82,19.21L642.18,500.12a10.49,10.49,0,0,0,11.64,0L835.18,379.21C843.81,373.46,839.74,360,829.36,360Z" transform="translate(-450 -262.4)"/><path d="M450,396V561a15,15,0,0,0,15,15H831a15,15,0,0,0,15-15V405L648,531Z" transform="translate(-450 -262.4)"/><path d="M680.63,387H615.37a3.37,3.37,0,0,1-3.37-3.37V345.37a3.37,3.37,0,0,0-3.37-3.37h-33.5a3.37,3.37,0,0,1-2.38-5.75l72.87-72.87a3.37,3.37,0,0,1,4.76,0l72.87,72.87a3.37,3.37,0,0,1-2.38,5.75h-33.5a3.37,3.37,0,0,0-3.37,3.37v38.26A3.37,3.37,0,0,1,680.63,387Z" transform="translate(-450 -262.4)"/></svg>