<svg xmlns="http://www.w3.org/2000/svg" xmlns:xlink="http://www.w3.org/1999/xlink" viewBox="0 0 2066.53 1501.54"><defs><style>.cls-1{fill:none;}.cls-2{fill:#840000;}.cls-3{stroke-miterlimit:10;fill:url(#RussianPattern2);stroke:url(#RussianPattern2);}</style><pattern id="RussianPattern2" data-name="RussianPattern2" width="572.73" height="544.6" patternUnits="userSpaceOnUse" viewBox="0 0 572.73 544.6"><rect class="cls-1" width="572.73" height="544.6"/><path class="cls-2" d="M476.85,569.37l11.62,65.28-58.66-30.4-59.19,30.22,11.44-64.56-47.21-46.68,65.1-9.12,29.68-59.55,29.51,59.37,65.1,9.12Zm-7-2.29,40.61-39.69-55.79-7.82-25.28-50.88-25.45,51-55.79,7.82,40.47,40-9.81,55.33L429.59,597l50.27,26Z"/><path class="cls-2" d="M398.52,543.08l12.16,11.63L419.8,547l18.95,24.32c-10.28,3.33-19.57.71-28.43-4.47l-6.26,6.62s-8.05,3.39-8.41,7.33,2,5,2,5,3.76,3.22,7.16,0,3.57-8.59,6.61-10.73c0,0,16.46,12.87,33.45,3.39l7.33,9.66s7.15.54,7-6.26l-7.33-8.22s18.78-13.95,6.8-38.81S428,516.62,428,516.62s40.6,15.38,17.35,50.07l-21.1-23.61,10-8.94-16.09-7Z"/><path class="cls-2" d="M190.48,569.37l11.63,65.28-58.66-30.4-59.2,30.22L95.7,569.91,48.49,523.23l65.09-9.12,29.69-59.55,29.51,59.37,65.1,9.12Zm-6.95-2.29,40.62-39.69-55.79-7.82-25.29-50.88-25.44,51-55.79,7.82,40.46,40-9.81,55.33L143.23,597l50.27,26Z"/><path class="cls-2" d="M112.15,543.08l12.16,11.63,9.12-7.69,19,24.32c-10.29,3.33-19.58.71-28.43-4.47l-6.26,6.62s-8,3.39-8.41,7.33,2,5,2,5,3.75,3.22,7.15,0S122,577.24,125,575.1c0,0,16.45,12.87,33.44,3.39l7.33,9.66s7.16.54,7-6.26l-7.33-8.22s18.78-13.95,6.79-38.81-30.58-18.24-30.58-18.24S182.26,532,159,566.69l-21.1-23.61,10-8.94-16.09-7Z"/><path class="cls-2" d="M620,297.07l11.62,65.28L573,332,513.8,362.17l11.44-64.56L478,250.93l65.1-9.12,29.69-59.55,29.5,59.37,65.1,9.12Zm-6.95-2.29,40.61-39.69-55.78-7.82-25.29-50.89-25.45,51-55.78,7.82,40.46,40L522,350.57l50.73-25.9L623,350.72Z"/><path class="cls-2" d="M541.7,270.78l12.16,11.63,9.12-7.69,19,24.32c-10.29,3.33-19.58.71-28.44-4.47l-6.26,6.61s-8,3.4-8.4,7.34,2,5,2,5,3.76,3.22,7.16,0,3.57-8.58,6.61-10.73c0,0,16.46,12.88,33.45,3.4l7.33,9.66s7.15.54,7-6.26L595,301.36s18.78-13.95,6.8-38.8-30.58-18.25-30.58-18.25,40.59,15.38,17.34,50.08l-21.1-23.61,10-8.94-16.1-7Z"/><path class="cls-2" d="M333.67,297.07l11.62,65.28L286.63,332l-59.19,30.22,11.44-64.56-47.21-46.68,65.09-9.12,29.69-59.55L316,241.63l65.1,9.12Zm-6.95-2.29,40.61-39.69-55.79-7.82-25.29-50.89-25.44,51L205,255.24l40.47,40-9.81,55.33,50.73-25.9,50.27,26.05Z"/><path class="cls-2" d="M255.33,270.78l12.17,11.63,9.12-7.69L295.57,299c-10.29,3.33-19.58.71-28.43-4.47l-6.26,6.61s-8,3.4-8.41,7.34,2,5,2,5,3.76,3.22,7.15,0,3.58-8.58,6.62-10.73c0,0,16.45,12.88,33.44,3.4l7.34,9.66s7.15.54,7-6.26l-7.33-8.23s18.78-13.95,6.79-38.8-30.58-18.25-30.58-18.25,40.6,15.38,17.35,50.08l-21.1-23.61,10-8.94-16.09-7Z"/><path class="cls-2" d="M47.3,297.07l11.63,65.28L.27,332l-59.2,30.22,11.45-64.56L-94.7,250.93l65.1-9.12L.09,182.26,29.6,241.63l65.1,9.12Zm-6.95-2.29L81,255.09l-55.79-7.82L-.11,196.38l-25.44,51-55.79,7.82,40.46,40-9.81,55.33L0,324.67l50.28,26.05Z"/><path class="cls-2" d="M-31,270.78l12.16,11.63,9.12-7.69L9.21,299c-10.29,3.33-19.58.71-28.44-4.47l-6.25,6.61s-8,3.4-8.41,7.34,2,5,2,5,3.75,3.22,7.15,0,3.58-8.58,6.62-10.73c0,0,16.45,12.88,33.44,3.4l7.33,9.66s7.16.54,7-6.26l-7.33-8.23s18.77-13.95,6.79-38.8S-1.52,244.31-1.52,244.31s40.6,15.38,17.35,50.08L-5.28,270.78l10-8.94-16.1-7Z"/><path class="cls-2" d="M476.85,24.77l11.62,65.28L429.81,59.64,370.62,89.87l11.44-64.56L334.85-21.37,400-30.49,429.63-90l29.51,59.38,65.1,9.12Zm-7-2.29,40.61-39.7L454.72-25,429.44-75.92,404-24.88,348.2-17.06l40.47,40-9.81,55.33,50.73-25.9,50.27,26.05Z"/><path class="cls-2" d="M398.52-1.52,410.68,10.1l9.12-7.69,18.95,24.33c-10.28,3.33-19.57.71-28.43-4.47l-6.26,6.61s-8.05,3.4-8.41,7.34,2,5,2,5,3.76,3.22,7.16,0,3.57-8.58,6.61-10.73c0,0,16.46,12.88,33.45,3.4l7.33,9.66s7.15.53,7-6.26l-7.33-8.23s18.78-13.95,6.8-38.81S428-28,428-28s40.6,15.38,17.35,50.08L424.27-1.52l10-8.94-16.09-7Z"/><path class="cls-2" d="M190.48,24.77l11.63,65.28L143.45,59.64,84.25,89.87,95.7,25.31,48.49-21.37l65.09-9.12L143.27-90l29.51,59.38,65.1,9.12Zm-6.95-2.29,40.62-39.7L168.36-25,143.07-75.92l-25.44,51L61.84-17.06l40.46,40L92.49,78.27l50.74-25.9L193.5,78.42Z"/><path class="cls-2" d="M112.15-1.52,124.31,10.1l9.12-7.69,19,24.33c-10.29,3.33-19.58.71-28.43-4.47l-6.26,6.61s-8,3.4-8.41,7.34,2,5,2,5,3.75,3.22,7.15,0S122,32.64,125,30.49c0,0,16.45,12.88,33.44,3.4l7.33,9.66s7.16.53,7-6.26l-7.33-8.23s18.78-13.95,6.79-38.81S141.66-28,141.66-28,182.26-12.61,159,22.09L137.91-1.52l10-8.94-16.09-7Z"/></pattern></defs><title>Asset 6</title><g id="Layer_2" data-name="Layer 2"><g id="Layer_1-2" data-name="Layer 1"><rect class="cls-3" x="0.5" y="0.5" width="2065.53" height="1500.54"/></g></g></svg>