<svg xmlns="http://www.w3.org/2000/svg" viewBox="0 0 286.36 272.3"><defs><style>.cls-1{fill:#fc0;}.cls-2{fill:#c00;}</style></defs><title>Asset 1</title><g id="Layer_2" data-name="Layer 2"><g id="Layer_1-2" data-name="Layer 1"><polygon class="cls-1" points="71.39 174.41 0 103.84 98.43 90.05 143.32 0 187.93 89.78 286.36 103.57 214.71 173.6 232.28 272.3 143.59 226.33 54.08 272.03 71.39 174.41"/><polygon class="cls-2" points="81.37 170.84 20.19 110.35 104.55 98.53 143.02 21.36 181.25 98.3 265.61 110.12 204.2 170.14 219.26 254.72 143.25 215.33 66.54 254.49 81.37 170.84"/><path class="cls-1" d="M96.27,133.85l18.38,17.58,13.79-11.63,28.67,36.78c-15.56,5-29.61,1.08-43-6.76l-9.46,10S92.48,185,91.94,190.91s3,7.57,3,7.57,5.68,4.87,10.82,0,5.41-13,10-16.22c0,0,24.87,19.47,50.56,5.13L177.39,202s10.81.81,10.54-9.47l-11.08-12.44s28.39-21.09,10.27-58.68-46.24-27.58-46.24-27.58,61.39,23.26,26.23,75.72l-31.91-35.7,15.15-13.52L126,109.79Z"/></g></g></svg>