<svg id="Layer_1" data-name="Layer 1" xmlns="http://www.w3.org/2000/svg" viewBox="0 0 432 192"><title>RevealedIcon</title><path d="M432,504s216,216,432,0C648,288,432,504,432,504Zm18,0s198-182.25,396,0C648,686.25,450,504,450,504Z" transform="translate(-432 -408)"/><path d="M648,423a81,81,0,1,0,81,81A81,81,0,0,0,648,423Zm.17,153.34a72.17,72.17,0,1,1,72.17-72.17A72.17,72.17,0,0,1,648.17,576.34Z" transform="translate(-432 -408)"/><path d="M648,486a18,18,0,1,0,18,18A18,18,0,0,0,648,486Zm.17,27a9.17,9.17,0,1,1,9.17-9.17A9.18,9.18,0,0,1,648.17,513Z" transform="translate(-432 -408)"/></svg>