<svg id="fc62cb0f-5a26-45d4-b423-85fd1819402e" data-name="Layer 1" xmlns="http://www.w3.org/2000/svg" viewBox="0 0 370.93 424.55"><defs><style>.f9fbe4f8-ec41-43aa-81dc-2a0d02a66d1a{stroke:#000;stroke-miterlimit:10;}</style></defs><title>SkullIcon</title><path d="M393.33,517.92" transform="translate(-463.31 -436.35)"/><path class="f9fbe4f8-ec41-43aa-81dc-2a0d02a66d1a" d="M815.92,723.66s62.83-177.3-47.47-242.22c0,0-78.28-53.57-131.93-43.28,0,0-164.73,7-172.41,153.57,0,0-4.19,109.59,18.85,135.42,0,0-2.1,11.17-16.06,14.66,0,0,4.89,53.75,64.92,57.94,0,0,44.67,2.09,36.3,32.11,0,0-11.87,17.45,14.66,27.92,0,0,7.67-22.34,23,0,0,0,9.08-27.92,18.15-7.68,0,0,11.87-58.64,23,4.19,0,0,11.16-30,23,0,6.19-7.11,11.92-8.45,16.75,1.39,0,0,14.66-31.41,16.76-4.88,0,0,21.64-8.38,22.33-22.34,0,0-22.33-40.49,39.09-41.88,0,0,23,18.15,40.49-16.76l18.85-30.71S829.88,726.45,815.92,723.66ZM591.85,704.81c-18.85,36.3-53.75,33.51-53.75,33.51s-37-28.62-30-61.86,64.22-28.15,64.22-28.15C621.17,644.17,591.85,704.81,591.85,704.81ZM648.7,808l-8.4-20.85c-10.91-4.24-8.73,5-8.73,5l-.83,14.63c-48.87-9.58-14.83-62.56-13.69-64.58s7.26,1.88,8.53-16.92,14.53-8.12,14.53-8.12L655,714c16.9,8.83,8,6.13,18.91,51.64S648.7,808,648.7,808Zm100.91-67.43c-83.07-18.15-64.92-74.7-64.92-74.7,2.09-30,46.77-17.45,46.77-17.45,27.66,2,48.86,25.13,48.86,25.13C802,707.07,749.61,740.58,749.61,740.58Z" transform="translate(-463.31 -436.35)"/></svg>