<svg id="Layer_1" data-name="Layer 1" xmlns="http://www.w3.org/2000/svg" viewBox="0 0 306.14 284.93"><title>SwapIcon</title><path d="M678.55,355.17l118.11,66.44a8.52,8.52,0,0,1,0,14.85L678.55,502.89a8.51,8.51,0,0,1-12.69-7.42V473.06a8.52,8.52,0,0,0-8-8.5l-137-8.06a8.51,8.51,0,0,1-8-8.5V418.61a8.51,8.51,0,0,1,7.52-8.46l138-16.23a8.53,8.53,0,0,0,7.53-8.46V362.6A8.52,8.52,0,0,1,678.55,355.17Z" transform="translate(-494.86 -354.07)"/><path d="M617.31,490.17,499.2,556.61a8.52,8.52,0,0,0,0,14.85l118.11,66.43A8.51,8.51,0,0,0,630,630.47V608.06a8.52,8.52,0,0,1,8-8.5l137-8.06a8.52,8.52,0,0,0,8-8.5V553.61a8.51,8.51,0,0,0-7.52-8.46l-138-16.23a8.52,8.52,0,0,1-7.52-8.46V497.6A8.52,8.52,0,0,0,617.31,490.17Z" transform="translate(-494.86 -354.07)"/></svg>