<svg xmlns="http://www.w3.org/2000/svg" viewBox="0 0 959.19 598.72"><defs><style>.cls-1{fill:#424242;}</style></defs><title>TileInner</title><g id="Layer_2" data-name="Layer 2"><g id="Layer_2-2" data-name="Layer 2"><polygon class="cls-1" points="33.84 22.68 0 15.01 0 33.16 5.64 99.49 21.44 111.36 42.88 114.85 20.08 124.15 0 122.53 7.26 352.77 28.7 384.19 9.03 390.65 0 404.62 0 431.85 0 574.99 21.44 589.65 32.73 589.65 42.88 584.76 58.49 598.3 211.02 591.04 239.23 593.84 311.98 596.22 429.15 594.66 512.32 598.72 542.79 598.72 576.64 586.86 598.08 592.44 615.01 598.72 734.63 598.72 865.53 598.72 879.07 587.55 902.43 587.29 914.05 598.72 937.75 598.72 952.42 591.74 952.42 578.48 959.19 568 959.19 347.36 930.98 328.51 947.91 319.43 952.42 301.17 957.83 267.76 938.88 258.69 954.68 251.01 936.62 203.53 945.65 161.63 953.55 18.5 947.91 3.13 808.87 3.13 780.44 21.54 745.91 3.13 567.62 3.13 513.09 8.46 503.44 30.61 490.88 12.21 325 3.13 236.98 3.13 189.71 26.67 178.42 4.33 43.01 0 24.83 6.63 33.84 22.68"/></g></g></svg>