<svg xmlns="http://www.w3.org/2000/svg" viewBox="0 0 1024 640"><title>TileOuter</title><g id="Layer_2" data-name="Layer 2"><g id="Layer_1-2" data-name="Layer 1"><polygon points="29.49 8.14 0 14.8 8.26 119.12 0 128 0 384 8.26 406.94 0 456.51 7.08 617.8 20.05 627.42 35.39 636.3 55.45 636.3 61.35 640 186.4 637.04 311.45 640 581.6 640 607.56 634.82 657.11 640 933.16 640 937.88 633.34 953.22 640 1009.84 640 1024 630.38 1018.1 620.02 1024 610.4 1024 365.5 1005.12 352.19 1015.74 345.53 1015.74 332.21 1024 269.32 1008.66 221.22 1014.56 173.13 1024 20.72 1024 8.14 1012.2 0 829.35 0 823.45 5.92 796.31 0 600.48 0 520.26 4.44 461.27 0 243.02 0 233.59 17.02 232.41 0 31.85 0 29.49 8.14"/></g></g></svg>