<svg id="Layer_1" data-name="Layer 1" xmlns="http://www.w3.org/2000/svg" viewBox="0 0 252 279"><title>TrashIcon</title><rect y="18" width="252" height="27" rx="12"/><rect x="81" width="90" height="45" rx="12"/><path d="M761.5,504h-227c-7.72,0-13.6,7.78-12.33,16.33l27.9,187.95c1,6.76,6.22,11.72,12.32,11.72H733.61c6.1,0,11.31-5,12.32-11.72l27.9-187.95C775.1,511.78,769.22,504,761.5,504ZM592.24,683.26A9.74,9.74,0,0,1,582.5,693h0a9.74,9.74,0,0,1-9.61-8.14L549.14,542.35A9.75,9.75,0,0,1,558.75,531H582.5a9.74,9.74,0,0,1,9.74,9.74ZM675,681a12,12,0,0,1-12,12H633a12,12,0,0,1-12-12V543a12,12,0,0,1,12-12h30a12,12,0,0,1,12,12Zm71.86-138.65L723.11,684.86A9.74,9.74,0,0,1,713.5,693h0a9.74,9.74,0,0,1-9.74-9.74V540.74A9.74,9.74,0,0,1,713.5,531h23.75A9.75,9.75,0,0,1,746.86,542.35Z" transform="translate(-522 -441)"/></svg>